<svg width="22" height="22" viewBox="0 0 22 22" fill="none" xmlns="http://www.w3.org/2000/svg">
<path d="M18.332 18.3011V8.1706L10.9987 3.69633L3.66536 8.1706V18.3011H7.33203V15.7377C7.33203 14.7488 7.71834 13.8005 8.40597 13.1012C9.09361 12.402 10.0262 12.0091 10.9987 12.0091C11.9712 12.0091 12.9038 12.402 13.5914 13.1012C14.2791 13.8005 14.6654 14.7488 14.6654 15.7377V18.3011H18.332ZM12.832 20.1654V15.7377C12.832 15.2433 12.6389 14.7691 12.2951 14.4195C11.9512 14.0698 11.4849 13.8734 10.9987 13.8734C10.5125 13.8734 10.0462 14.0698 9.70234 14.4195C9.35852 14.7691 9.16536 15.2433 9.16536 15.7377V20.1654H3.66536C3.17913 20.1654 2.71282 19.969 2.369 19.6193C2.02519 19.2697 1.83203 18.7955 1.83203 18.3011V8.1706C1.83203 7.84866 1.91401 7.53221 2.06999 7.25206C2.22597 6.97191 2.45064 6.73761 2.72211 6.57198L10.0554 2.09771C10.3404 1.92386 10.6664 1.83203 10.9987 1.83203C11.331 1.83203 11.657 1.92386 11.9419 2.09771L19.2753 6.57198C19.5468 6.73761 19.7714 6.97191 19.9274 7.25206C20.0834 7.53221 20.1654 7.84866 20.1654 8.1706V18.3011C20.1654 18.7955 19.9722 19.2697 19.6284 19.6193C19.2846 19.969 18.8183 20.1654 18.332 20.1654H12.832Z" fill="white"/>
</svg>
