<svg width="22" height="22" viewBox="0 0 22 22" fill="none" xmlns="http://www.w3.org/2000/svg">
<path d="M1.83203 5.50864C1.83203 4.502 2.59396 3.66166 3.59062 3.55931L3.63287 3.55543L19.3242 2.27994C19.7525 2.24513 20.128 2.56411 20.1628 2.9924C20.1968 3.41096 19.8929 3.77903 19.4793 3.82803L19.4503 3.83093L3.75887 5.10642C3.55722 5.12279 3.4002 5.28562 3.38885 5.48542L3.38794 7.23446C3.51609 7.208 3.64883 7.1941 3.78481 7.1941H18.2126C19.2911 7.1941 20.1654 8.06841 20.1654 9.14688V17.7721C20.1654 18.8506 19.2911 19.7248 18.2126 19.7248H3.78481C2.70634 19.7248 1.83203 18.8506 1.83203 17.7721V5.50864ZM18.2126 8.75021H3.78481C3.56575 8.75021 3.38814 8.92782 3.38814 9.14688V17.7721C3.38814 17.9911 3.5657 18.1687 3.78481 18.1687H18.2126C18.4317 18.1687 18.6092 17.9912 18.6092 17.7721V9.14688C18.6092 8.92777 18.4316 8.75021 18.2126 8.75021Z" fill="#807E81"/>
<path fill-rule="evenodd" clip-rule="evenodd" d="M20.0654 2.99895C20.0351 2.6257 19.7079 2.34772 19.3347 2.37806L3.64437 3.65345L3.60265 3.65729C2.65716 3.75465 1.93438 4.55199 1.93438 5.50708V17.7706C1.93438 18.7938 2.76391 19.6232 3.78716 19.6232H18.215C19.2382 19.6232 20.0677 18.7938 20.0677 17.7706V9.14533C20.0677 8.12208 19.2382 7.29255 18.215 7.29255H3.78716C3.658 7.29255 3.53204 7.30575 3.41051 7.33084L3.29022 7.35567L3.29119 5.47818C3.30536 5.22883 3.50142 5.02563 3.75312 5.0052L19.4427 3.72987L19.4527 3.82937L19.4446 3.7297L19.4699 3.72717L19.4817 3.82643L19.4717 3.72697C19.8316 3.68385 20.0951 3.36339 20.0654 2.99895ZM19.3185 2.17871C19.8018 2.13943 20.2255 2.4994 20.2648 2.98274C20.3032 3.45512 19.9603 3.87047 19.4935 3.92578L19.4916 3.92598L19.4608 3.92906L3.76931 5.20454C3.61861 5.21677 3.50094 5.33786 3.49119 5.48693L3.49035 7.11386C3.5873 7.09981 3.68641 7.09255 3.78716 7.09255H18.215C19.3487 7.09255 20.2677 8.01163 20.2677 9.14533V17.7706C20.2677 18.9043 19.3487 19.8232 18.215 19.8232H3.78716C2.65347 19.8232 1.73438 18.9043 1.73438 17.7706V5.50708C1.73438 4.44907 2.53518 3.56585 3.58275 3.45828L3.58381 3.45817L3.62711 3.4542L19.3185 2.17871ZM3.29048 9.14533C3.29048 8.87104 3.51287 8.64865 3.78716 8.64865H18.215C18.4892 8.64865 18.7115 8.87101 18.7115 9.14533V17.7706C18.7115 18.0448 18.4893 18.2671 18.215 18.2671H3.78716C3.51284 18.2671 3.29048 18.0448 3.29048 17.7706V9.14533ZM3.78716 8.84865C3.62332 8.84865 3.49048 8.9815 3.49048 9.14533V17.7706C3.49048 17.9343 3.62325 18.0671 3.78716 18.0671H18.215C18.3788 18.0671 18.5115 17.9344 18.5115 17.7706V9.14533C18.5115 8.98142 18.3787 8.84865 18.215 8.84865H3.78716Z" fill="#807E81"/>
</svg>
