<svg width="23" height="22" viewBox="0 0 23 22" fill="none" xmlns="http://www.w3.org/2000/svg">
<path fill-rule="evenodd" clip-rule="evenodd" d="M4.525 3.4987C3.98192 3.4987 3.54167 3.93895 3.54167 4.48203V17.5154C3.54167 18.0584 3.98192 18.4987 4.525 18.4987H17.5583C18.1014 18.4987 18.5417 18.0584 18.5417 17.5154V4.48203C18.5417 3.93895 18.1014 3.4987 17.5583 3.4987H4.525ZM1.875 4.48203C1.875 3.01848 3.06145 1.83203 4.525 1.83203H17.5583C19.0219 1.83203 20.2083 3.01848 20.2083 4.48203V17.5154C20.2083 18.9789 19.0219 20.1654 17.5583 20.1654H4.525C3.06144 20.1654 1.875 18.9789 1.875 17.5154V4.48203Z" fill="#807E81"/>
<path fill-rule="evenodd" clip-rule="evenodd" d="M6.8763 1.83203C7.33654 1.83203 7.70964 2.20513 7.70964 2.66536V19.332C7.70964 19.7923 7.33654 20.1654 6.8763 20.1654C6.41606 20.1654 6.04297 19.7923 6.04297 19.332V2.66536C6.04297 2.20513 6.41606 1.83203 6.8763 1.83203Z" fill="#807E81"/>
<path fill-rule="evenodd" clip-rule="evenodd" d="M15.2083 1.83203C15.6686 1.83203 16.0417 2.20513 16.0417 2.66536V19.332C16.0417 19.7923 15.6686 20.1654 15.2083 20.1654C14.7481 20.1654 14.375 19.7923 14.375 19.332V2.66536C14.375 2.20513 14.7481 1.83203 15.2083 1.83203Z" fill="#807E81"/>
<path fill-rule="evenodd" clip-rule="evenodd" d="M1.875 10.9974C1.875 10.5372 2.2481 10.1641 2.70833 10.1641H19.375C19.8352 10.1641 20.2083 10.5372 20.2083 10.9974C20.2083 11.4576 19.8352 11.8307 19.375 11.8307H2.70833C2.2481 11.8307 1.875 11.4576 1.875 10.9974Z" fill="#807E81"/>
<path fill-rule="evenodd" clip-rule="evenodd" d="M1.875 6.83333C1.875 6.3731 2.2481 6 2.70833 6H6.875C7.33524 6 7.70833 6.3731 7.70833 6.83333C7.70833 7.29357 7.33524 7.66667 6.875 7.66667H2.70833C2.2481 7.66667 1.875 7.29357 1.875 6.83333Z" fill="#807E81"/>
<path fill-rule="evenodd" clip-rule="evenodd" d="M1.875 15.1654C1.875 14.7051 2.2481 14.332 2.70833 14.332H6.875C7.33524 14.332 7.70833 14.7051 7.70833 15.1654C7.70833 15.6256 7.33524 15.9987 6.875 15.9987H2.70833C2.2481 15.9987 1.875 15.6256 1.875 15.1654Z" fill="#807E81"/>
<path fill-rule="evenodd" clip-rule="evenodd" d="M14.375 15.1654C14.375 14.7051 14.7481 14.332 15.2083 14.332H19.375C19.8352 14.332 20.2083 14.7051 20.2083 15.1654C20.2083 15.6256 19.8352 15.9987 19.375 15.9987H15.2083C14.7481 15.9987 14.375 15.6256 14.375 15.1654Z" fill="#807E81"/>
<path fill-rule="evenodd" clip-rule="evenodd" d="M14.375 6.83333C14.375 6.3731 14.7481 6 15.2083 6H19.375C19.8352 6 20.2083 6.3731 20.2083 6.83333C20.2083 7.29357 19.8352 7.66667 19.375 7.66667H15.2083C14.7481 7.66667 14.375 7.29357 14.375 6.83333Z" fill="#807E81"/>
</svg>
