<svg width="448" height="493" viewBox="0 0 448 493" fill="none" xmlns="http://www.w3.org/2000/svg">
<g opacity="0.6">
<path fill-rule="evenodd" clip-rule="evenodd" d="M447.684 287.049C448.282 346.149 391.288 383.804 345.177 420.658C299.06 457.515 250.411 501.647 192.368 491.103C132.243 480.181 92.9484 425.413 66.7757 370.084C40.8477 315.271 28.05 252.645 53.5446 197.628C79.4248 141.78 133.974 102.365 194.821 93.7673C250.564 85.8909 297.745 122.586 342.504 156.799C389.127 192.436 447.088 228.292 447.684 287.049Z" fill="#2F9DAC"/>
<path fill-rule="evenodd" clip-rule="evenodd" d="M98.7317 10.7575C126.907 10.1651 147.949 32.4663 166.747 53.3941C183.752 72.3249 195.862 94.1265 196.449 119.544C197.172 150.846 196.685 188.027 170.248 204.931C143.731 221.886 110.353 205.154 81.2373 193.21C54.9489 182.426 29.0587 168.68 18.1086 142.518C6.41891 114.589 8.15808 82.2424 23.9735 56.3955C39.9863 30.2262 68.0075 11.4034 98.7317 10.7575Z" fill="#CAB467"/>
</g>
</svg>
