<svg width="248" height="106" viewBox="0 0 248 106" fill="none" xmlns="http://www.w3.org/2000/svg">
<mask id="mask0_512_22826" style="mask-type:alpha" maskUnits="userSpaceOnUse" x="0" y="88" width="248" height="12">
<rect width="248" height="12" transform="matrix(-1 0 0 1 248 88)" fill="#C4C4C4"/>
</mask>
<g mask="url(#mask0_512_22826)">
<path d="M327.171 40.4623L326.23 40.3041L328.061 40.0773L327.184 39.9113C326.304 39.9128 325.163 40.1616 324.543 40.0294C324.467 39.9015 325.425 39.8604 325.67 39.7584C325.886 39.6539 326.063 39.5501 326.198 39.4482C325.718 39.4493 325.191 39.474 324.648 39.5207C323.917 39.5971 323.2 39.6342 322.577 39.628C321.301 39.6486 320.069 39.628 318.682 39.6325L319.143 39.3246L317.356 39.3966C317.167 39.4201 316.941 39.3824 316.755 39.4114C315.206 39.657 314.551 39.5231 313.807 39.4122C313.655 39.3835 313.471 39.362 313.261 39.3484C311.195 39.4072 309.332 39.7515 307.471 39.9282C307.121 39.9733 306.785 40.0312 306.487 40.0978C305.84 40.2273 305.12 40.333 304.393 40.4053C303.667 40.4776 302.956 40.5141 302.327 40.5115C300.936 40.5087 299.364 40.5943 297.764 40.7602C297.288 40.8148 296.812 40.8508 296.366 40.866C295.92 40.8811 295.514 40.8751 295.173 40.8482L294.091 41.024C293.622 40.9526 293.028 40.9135 292.343 40.9089C291.659 40.9044 290.899 40.9345 290.111 40.9974C289.27 41.0657 288.416 41.1117 287.544 41.1839C285.742 41.3219 283.989 41.4063 282.338 41.4345C279.88 41.518 277.479 41.5825 274.999 41.6866C273.447 41.7369 271.936 41.7645 270.473 41.7694C268.721 41.789 266.826 41.8842 264.878 42.0502V42.0502C264.971 42.206 265.825 42.16 266.398 42.1547C268.246 42.1288 270.138 42.0617 272.04 42.0113C272.896 41.9916 273.729 41.9842 274.534 41.989C275.879 41.9826 277.298 41.9411 278.764 41.8652C281.081 41.7817 283.325 41.7416 285.471 41.7453C285.639 41.7514 285.793 41.7624 285.931 41.7779C285.959 41.7913 285.965 41.8083 285.947 41.8271C285.929 41.8459 285.888 41.866 285.828 41.8854C285.768 41.9048 285.692 41.9229 285.605 41.9379C285.518 41.953 285.425 41.9644 285.334 41.9713C284.481 42.0768 283.566 42.1902 282.762 42.2062C282.731 42.2074 282.698 42.2101 282.665 42.2142C282.632 42.2182 282.601 42.2235 282.572 42.2296C280.773 42.4525 279.293 42.4148 277.892 42.4511C275.564 42.5491 273.321 42.5948 271.195 42.5877C270.874 42.5882 270.527 42.6009 270.167 42.6255C267.941 42.7249 265.859 42.736 264.019 42.6583C263.262 42.6386 262.558 42.5944 261.744 42.5937C261.243 42.5907 260.807 42.5625 260.462 42.5108C260.116 42.4591 259.87 42.385 259.736 42.293C259.393 42.3414 259.044 42.3846 258.694 42.422C258.485 42.4434 258.285 42.4491 258.134 42.4379C257.982 42.4267 257.891 42.3995 257.879 42.3617C257.816 42.256 258.293 42.203 258.707 42.1577C258.457 42.135 258.176 42.1217 257.87 42.118C256.146 42.0938 254.297 42.1223 252.363 42.2029C250.861 42.2993 249.662 42.2208 248.083 42.3568C247.893 42.3802 247.737 42.3458 247.563 42.3375C247.108 42.294 246.542 42.2842 245.913 42.309C245.284 42.3339 244.612 42.3925 243.954 42.48C243.134 42.2411 241.364 42.514 240.057 42.5386C239.655 42.6601 240.117 42.6387 240.136 42.6721C240.156 42.7055 240.136 42.6721 240.294 42.6525C241.599 42.8246 243.387 42.8621 245.407 42.7598C245.781 42.7602 246.137 42.7681 246.472 42.7833C246.979 42.8047 247.551 42.8026 248.162 42.7769C248.83 42.7581 249.444 42.767 249.974 42.8033C250.279 42.8028 250.536 42.821 250.723 42.8563C250.91 42.8916 251.02 42.9429 251.042 43.0054C250.839 43.0536 250.613 43.0977 250.374 43.136C249.126 43.287 247.882 43.3495 246.886 43.3112C245.153 43.2452 243.09 43.3096 241.246 43.2871C240 43.2779 238.674 43.3039 237.294 43.3646C237.294 43.3646 237.33 43.4258 237.333 43.4313C237.17 43.4578 236.998 43.4791 236.828 43.4939C236.828 43.4939 236.828 43.4939 236.812 43.4661C236.887 43.4394 236.99 43.4142 237.108 43.3936L237.518 43.3428C237.239 43.3295 236.978 43.2901 236.688 43.3142C236.075 43.3589 235.49 43.3778 234.967 43.3697C234.444 43.3616 233.994 43.3268 233.644 43.2672C233.024 43.1908 232.253 43.1561 231.381 43.1653C230.712 43.1569 230.068 43.139 229.451 43.1116C229.451 43.1116 229.412 43.0449 229.12 43.0094C229.396 42.9656 229.685 42.9299 229.972 42.9038C231.221 42.8387 232.474 42.7791 233.701 42.7346C234.153 42.7298 234.578 42.7372 234.968 42.7568C236.048 42.7797 237.261 42.7472 238.537 42.6611C238.537 42.6611 238.79 42.6299 238.916 42.6142C238.558 42.4675 237.324 42.6144 236.824 42.515C236.52 42.5168 235.985 42.5293 236.004 42.5031C236.045 42.4682 236.05 42.4358 236.018 42.4082C235.986 42.3805 235.918 42.3584 235.818 42.3433C235.719 42.3283 235.59 42.3206 235.442 42.321C235.294 42.3214 235.13 42.3298 234.961 42.3456C233.556 42.4308 232.233 42.4545 231.072 42.4152C230.632 42.416 230.138 42.4413 229.702 42.4476C229.434 42.4552 229.19 42.451 228.983 42.4351C227.927 42.3184 226.507 42.3099 224.936 42.4108C224.176 42.4471 223.466 42.452 222.843 42.4251C222.4 42.4203 222.212 42.5033 221.896 42.5424L220.555 42.6249L222.277 42.7281C221.909 42.9648 221.616 43.0429 221.015 43.0576C220.138 43.0799 219.284 43.0899 218.458 43.0877C217.846 43.0858 217.342 43.0348 216.514 43.1253C216.368 43.1401 216.227 43.1449 216.116 43.1389C215.147 43.0585 213.98 43.0401 212.695 43.0848C212.03 42.9343 210.896 43.0806 209.848 43.1985C209.51 43.0852 210.123 43.0331 210.488 42.9639C209.612 42.971 208.728 42.967 207.823 42.9835C207.551 42.9775 207.239 42.9878 206.914 43.0137C206.588 43.0395 206.257 43.0801 205.946 43.1324C205.794 43.1662 205.611 43.1916 205.435 43.2034C205.259 43.2152 205.104 43.2125 205.001 43.1957C204.531 43.1464 203.778 43.1919 203.39 43.1086C203.252 43.0894 203.055 43.0867 202.833 43.101C202.612 43.1153 202.381 43.1456 202.182 43.1865V43.1865C202.4 43.1992 202.594 43.2193 202.76 43.2463C203.354 43.334 203.136 43.4804 202.381 43.6934C201.222 43.6817 200.038 43.685 198.964 43.6448C198.365 43.6088 197.631 43.6201 196.845 43.6774C196.059 43.7347 195.251 43.8357 194.513 43.9691C194.246 44.0204 193.942 44.0559 193.66 44.0687C193.379 44.0814 193.142 44.0703 192.995 44.0377C192.904 44 192.876 43.9522 192.913 43.8986L193.67 43.8048C193.67 43.8048 193.641 43.7547 193.634 43.7436L192.545 43.7352C191.968 43.7349 191.367 43.7496 190.822 43.7454C190.022 43.7175 189.109 43.733 188.139 43.7912C187.244 43.8508 186.364 43.8958 185.507 43.9259C184.679 43.9569 184.078 43.8581 183.289 43.8424C182.693 43.8305 182.037 43.8432 181.346 43.88C180.153 43.9453 179.058 43.9454 178.161 43.8803C177.115 44.2309 176.606 44.2879 175.635 44.1931L175.179 44.1661L175.054 44.2413L174.705 44.2247C174.052 44.21 173.4 44.1953 172.719 44.19C171.772 44.2226 170.75 44.3101 169.752 44.444C169.562 44.4675 169.305 44.5472 169.138 44.6096C168.972 44.672 168.609 44.8603 168.343 44.9828C168.633 45.0723 168.955 45.1579 169.185 45.2607C169.208 45.2783 169.206 45.2992 169.179 45.3219C169.151 45.3445 169.099 45.3682 169.027 45.3911C168.955 45.414 168.865 45.4354 168.763 45.4536C168.662 45.4718 168.553 45.4863 168.444 45.4959C168.232 45.5166 168.022 45.5305 167.824 45.5368C166.849 45.5477 165.914 45.5396 165.031 45.5125C164.708 45.4742 164.266 45.4706 163.776 45.5022C163.285 45.5337 162.773 45.5987 162.322 45.6868C161.165 45.6339 159.822 45.6495 158.384 45.7326C156.863 45.6821 155.026 45.7842 153.605 45.6736C153.638 45.7292 153.491 45.825 153.286 45.8802C152.963 45.964 152.597 46.0417 152.203 46.1099L149.198 46.2432C149.086 46.3117 148.945 46.3811 148.779 46.4504C148.664 46.5052 148.466 46.5588 148.224 46.5998C147.983 46.6408 147.718 46.6661 147.486 46.6703C146.888 46.6906 146.386 46.6452 145.673 46.7574C146.771 46.8634 148.252 46.8493 149.852 46.7176C151.355 46.6174 152.801 46.5674 154.135 46.5693C154.576 46.5685 155.155 46.5744 155.293 46.635C155.598 46.8062 156.395 46.7792 157.325 46.7476C158.056 46.713 158.723 46.7169 159.272 46.7589C159.821 46.8009 160.237 46.8799 160.484 46.9893C160.547 47.095 160.397 47.1852 159.756 47.2468L157.089 47.4934C156.696 47.4617 156.323 47.4242 155.972 47.3809C155.38 47.3236 154.65 47.3078 153.837 47.3349C153.024 47.362 152.151 47.4313 151.286 47.5373C150.844 47.592 150.403 47.6467 150.082 47.6207C149.801 47.5908 149.542 47.5551 149.307 47.5137C149.26 47.4859 149.241 47.454 149.251 47.4191C149.081 47.4353 148.911 47.4564 148.746 47.4817C147.429 47.7761 146.41 47.771 145.483 47.6946C145.233 47.6719 145.042 47.6358 144.788 47.6076C144.534 47.5793 144.444 47.5426 144.213 47.5533C142.373 47.6499 141.843 47.3273 140.292 47.3403C140.216 47.3277 140.169 47.3089 140.155 47.2855C140.142 47.2622 140.161 47.2351 140.213 47.2068C140.322 47.1812 140.449 47.1592 140.581 47.1428C140.714 47.1264 140.848 47.1161 140.97 47.1129C141.684 47.0715 142.315 47.0842 142.754 47.1488C143.065 47.1752 143.394 47.1963 143.74 47.2118L145.293 46.7447C143.788 46.7876 142.365 46.7873 141.057 46.7439C140.771 46.7196 140.288 46.7615 139.886 46.7695L136.93 46.8131C136.322 46.8168 135.804 46.7435 134.956 46.9142C134.956 46.9142 134.397 46.9417 134.247 46.9184C134.098 46.8951 133.436 46.7502 133.041 46.6558C132.582 46.6827 131.948 46.7553 131.662 46.731C131.163 46.6712 130.732 46.5945 130.375 46.5023L128.589 46.6339C128.591 46.7508 128.656 46.8608 128.783 46.9621C128.923 47.0599 128.918 47.1773 128.769 47.3046C128.621 47.432 128.333 47.5657 127.93 47.6949L126.166 48.3791C125.879 48.4249 125.572 48.4558 125.288 48.4674C125.004 48.4791 124.756 48.4711 124.579 48.4444C123.82 48.3651 122.97 48.3032 122.211 48.224C121.233 48.3452 121.484 48.541 120.773 48.7127L118.468 48.9981C118.117 49.2626 117.759 49.516 118.828 49.6045C119.04 49.62 118.897 49.7214 119.091 49.763C118.26 49.9615 117.346 50.021 116.504 50.1432C116.171 50.2311 115.894 50.3242 115.684 50.4179C115.453 50.5591 114.986 50.7032 114.382 50.8193C113.779 50.9353 113.088 51.014 112.459 51.0383C111.404 51.1126 110.323 51.2242 109.266 51.3681C108.905 51.4181 108.534 51.4546 108.177 51.475C107.821 51.4954 107.488 51.4993 107.201 51.4864C106.178 51.4638 105.312 51.3859 104.66 51.2578C104.015 51.1491 103.145 51.0967 102.129 51.1053C100.393 51.3204 100.043 51.6444 98.9921 51.9298L100.807 51.9618C100.873 52.0731 100.753 52.2134 101.497 52.2108C102.241 52.2083 101.863 52.3147 101.622 52.4223C101.537 52.4763 101.371 52.532 101.153 52.5797C100.934 52.6275 100.676 52.6645 100.422 52.6844L98.877 52.822C98.3291 52.8744 97.7989 52.8967 97.3445 52.8866C96.8902 52.8765 96.5292 52.8343 96.3015 52.7647C96.04 52.6986 95.679 52.6539 95.2409 52.6333C94.6825 52.5794 94.2232 52.4992 93.8802 52.3958L91.699 52.5465C91.6061 52.4425 91.3064 52.3696 90.8505 52.3401C90.3946 52.3106 89.8106 52.3263 89.1971 52.3846L87.7269 52.4771C86.0923 52.578 85.7338 52.5448 85.2551 52.2517L87.2154 51.7282C86.9303 51.5904 86.6552 51.4692 86.38 51.348C86.8684 51.1755 87.52 51.0124 88.2686 50.8752C88.9672 50.7278 89.6856 50.585 90.421 50.4474C91.2188 50.3068 92.0613 50.1845 93.0517 50.026C93.2247 49.9747 93.4759 49.8839 93.7968 49.7964C94.1179 49.7113 94.4531 49.6279 94.8009 49.5466C94.7349 49.4353 94.6756 49.3352 94.8024 49.206C94.1924 49.2472 93.5622 49.3193 92.9686 49.4158C92.375 49.5122 91.8367 49.63 91.4022 49.7585C91.3292 49.7813 91.2396 49.8027 91.1396 49.8213C91.0395 49.8399 90.9312 49.8552 90.8221 49.8662C89.7506 49.9451 89.2385 50.1101 88.7145 50.3123C88.3617 50.4157 87.9068 50.5076 87.413 50.5751C86.4659 50.6924 85.5386 50.843 84.6329 50.9731C84.3558 51.0165 84.0677 51.0522 83.7806 51.0787C82.8339 51.1631 81.8812 51.2811 80.9708 51.4267C80.6737 51.4637 80.3885 51.5127 80.1393 51.5695C79.89 51.6264 79.6838 51.6894 79.5379 51.7535C79.7633 51.8236 79.8849 51.9121 79.8955 52.0137C79.935 52.0805 79.2701 52.2166 78.9558 52.3153C78.6415 52.4139 79.2579 52.3674 79.4671 52.3773C80.3256 52.3964 80.4849 52.4364 79.9708 52.6554C79.799 52.7242 79.685 52.7931 79.6359 52.8577C79.5867 52.9224 79.6035 52.9814 79.6851 53.0311C79.8071 53.237 80.1783 53.406 80.4332 53.6073C80.0374 53.74 79.3759 53.8816 79.3038 54.0458C79.2691 54.0822 79.1959 54.1208 79.0894 54.1588C78.983 54.1968 78.846 54.2332 78.6884 54.2654C78.2728 54.3349 77.8949 54.418 77.5841 54.5082C77.2732 54.5985 77.0377 54.6936 76.8958 54.786C76.8494 54.8242 76.7373 54.8647 76.5819 54.8995C76.4265 54.9343 76.2393 54.9606 76.058 54.9733C75.8413 54.989 75.6473 54.9869 75.516 54.9676C75.3847 54.9483 75.3263 54.9132 75.3527 54.8696C75.3474 54.7877 75.376 54.7023 75.4385 54.6141C75.4022 54.5529 75.3659 54.4917 75.5092 54.3904C74.8621 54.4274 74.1828 54.5015 73.5449 54.6047C72.9071 54.7079 72.3352 54.8363 71.8914 54.9758C71.4008 55.1202 70.9484 55.2718 70.4046 55.4406C70.5167 55.6298 70.5167 55.6298 69.3595 55.9642L63.2208 56.1273L61.9627 56.3488C60.7894 56.5419 60.5105 56.5287 59.7736 56.4289L59.2775 56.335C58.2357 56.4641 57.036 56.6126 56.3844 56.3709C56.1728 56.5285 56.0347 56.5814 56.0828 56.6053C56.3938 56.8379 56.9342 57.0352 57.6828 57.1895C57.8736 57.2255 58.0079 57.2806 58.2303 57.3127C58.9473 57.4943 59.1137 57.775 58.6952 58.0972C58.4875 58.2398 58.1859 58.3858 57.7999 58.5306C58.3648 58.7314 59.1131 58.8979 60.0248 59.0254C60.7985 59.1241 61.4356 59.2562 61.9179 59.418C62.3509 59.5811 62.9994 59.7037 63.8261 59.7788C64.2455 59.8108 64.5515 59.8737 64.7137 59.9615C64.762 60.1991 64.6511 60.4536 64.3834 60.7191C64.333 60.7999 64.1897 60.8872 63.9649 60.9741C63.74 61.061 63.4398 61.1451 63.0875 61.22C63.0875 61.22 62.9179 61.2768 62.8364 61.3108C62.7684 61.5985 63.0227 61.8521 63.5821 62.0545C63.6738 62.1119 63.8613 62.1534 64.1246 62.1745C64.3878 62.1955 64.7168 62.1954 65.0762 62.174C65.8352 62.1397 66.5444 62.1355 67.2785 62.1163C68.0696 62.089 68.7664 62.1105 69.2956 62.1784C69.8249 62.2463 70.167 62.3582 70.286 62.5022C70.2938 62.543 70.3169 62.582 70.3553 62.619C70.3776 62.6381 70.3898 62.6586 70.3915 62.6802L68.7056 63.1518L70.6129 63.3396C70.725 63.5287 69.8094 63.6421 69.3505 63.7826L69.6341 63.8609C69.9993 63.9053 70.4912 63.8205 70.9365 63.7713L71.3785 63.7165L71.4313 63.8056C71.7064 63.9268 72.71 63.7905 73.1016 63.8794C73.4931 63.9682 73.2137 64.0685 72.627 64.1651C72.2192 64.2368 71.7813 64.2941 71.3462 64.3324C70.9111 64.3708 70.4902 64.3893 70.1151 64.3866C69.8911 64.3771 69.7053 64.3554 69.569 64.3229C68.7773 64.1842 67.9027 64.0651 66.9517 63.9662C66.2226 63.8775 65.3095 63.8397 64.2767 63.8556C63.9737 63.8489 63.6082 63.8699 63.2444 63.915C62.8807 63.96 62.5421 64.0262 62.2879 64.1019V64.1019L61.7531 64.1144C61.7531 64.1144 61.4605 64.1925 61.5019 64.2052C61.7055 64.4365 61.4689 64.7191 60.8274 65.0114V65.0114L61.3853 65.0378C62.1826 65.0108 61.677 65.1868 61.7962 65.2736C62.3626 65.2572 63.0985 65.184 63.3671 65.294L63.769 65.2861L63.6112 65.3056L63.4203 65.2695L62.6706 65.434C63.0259 65.4617 63.2832 65.4955 63.597 65.5104C63.7703 65.5233 63.9083 65.5462 64.0026 65.5776C64.097 65.6091 64.1457 65.6484 64.1459 65.6932C64.145 65.7623 64.2385 65.8204 64.4174 65.862C64.5963 65.9036 64.8547 65.9273 65.1679 65.931C65.5415 65.9325 65.7555 66.0075 65.9745 66.0341L65.0226 66.4864C65.0226 66.4864 65.4962 66.4278 65.2384 66.5075L65.2054 66.4518L64.6287 66.5651C64.2131 66.6643 63.9224 66.6884 63.6769 66.6173C63.4315 66.5461 63.4874 66.6407 63.3696 66.6135C63.4125 66.6858 63.6797 66.7364 63.9087 66.7797C64.1734 66.8137 64.4722 66.8387 64.8001 66.8544C64.2092 67.1724 64.1809 67.1819 65.0441 67.2661C65.9073 67.3503 65.6095 67.4767 66.3318 67.4948C67.0542 67.5128 66.2328 67.728 65.7494 67.77C65.391 67.7975 65.0256 67.8405 64.6782 67.8959C64.3308 67.9513 64.0096 68.0178 63.7369 68.0909L63.882 68.3357C64.0946 68.3154 64.3075 68.289 64.5134 68.2575C65.2132 68.123 65.8497 67.9964 66.4721 68.0746L66.1758 68.2606L68.3484 68.1527C68.2922 68.2921 67.961 68.4509 67.4248 68.5956V68.5956C67.5056 68.6751 67.5551 68.7587 67.5732 68.846C67.6094 68.9072 67.8239 68.8687 67.9634 68.8753C68.461 68.8855 68.8692 68.927 69.1524 68.996C69.4357 69.0651 69.5851 69.1596 69.5875 69.2713C69.6435 69.3659 68.8787 69.5621 68.4004 69.5557C67.2063 69.5745 65.9151 69.6473 64.5965 69.77C63.7927 69.786 63.6792 69.5373 62.3565 69.707C62.3302 69.8219 62.4997 69.9149 62.8392 69.9719C63.1787 70.029 63.6698 70.0471 64.2384 70.0234C63.9151 70.2784 62.1246 70.3449 62.0454 70.6115C62.4912 70.5927 62.968 70.5484 63.4285 70.483C63.889 70.4175 64.3172 70.3333 64.6709 70.2386C64.7472 70.2152 64.843 70.1937 64.9495 70.176C65.056 70.1583 65.1697 70.1449 65.28 70.1372C65.3903 70.1295 65.4938 70.1277 65.5807 70.1319C65.6676 70.1361 65.7352 70.1462 65.7773 70.1612C65.5294 70.2576 65.2566 70.3691 64.9455 70.4733C64.6345 70.5775 64.5596 70.6226 64.3354 70.6444C62.6621 70.8516 61.8667 71.2249 60.4191 71.4698C60.0403 71.5168 59.9931 71.6659 60.322 71.6491C60.6349 71.6322 60.9182 71.6344 61.1401 71.6554C61.362 71.6765 61.5139 71.7155 61.5787 71.7681C61.8215 71.8296 62.1238 71.8784 62.4781 71.9135C60.9936 72.2965 59.2235 72.635 57.3341 72.897C56.9763 72.9488 56.603 72.9804 56.2692 72.9871C55.2144 72.9875 54.0952 73.0179 52.9341 73.0777C52.5223 73.094 52.1417 73.0925 51.8132 73.0732C50.7356 73.0275 49.8798 73.1275 49.0981 73.4095L47.8042 73.8564C47.847 73.9287 48.0642 74.0093 48.2314 74.12L47.2207 74.3586L39.5075 73.809L37.9592 74.3411L35.7389 74.3116C35.5687 74.3269 35.3977 74.3481 35.2338 74.3741C34.7848 74.5313 34.4336 74.6822 33.9464 74.8322C33.4592 74.9821 32.5889 75.0003 31.982 75.177C31.3751 75.3537 30.7672 75.3573 30.0162 75.4623C29.9455 75.599 30.0185 75.7221 30.2305 75.8239C30.2997 75.9407 30.6814 76.0129 30.7473 76.1242C30.7401 76.2366 30.8819 76.3321 31.16 76.4019C31.438 76.4718 31.8436 76.5138 32.3398 76.5241C33.7295 76.7636 35.4053 76.9341 37.3164 77.0305C37.4843 77.0375 37.6235 77.0537 37.7254 77.078C37.8273 77.1024 37.8896 77.1344 37.9087 77.1721C37.906 77.2813 38.0335 77.3756 38.2817 77.4482C38.5299 77.5208 38.8927 77.5698 39.3434 77.5916C39.4634 77.596 39.554 77.6097 39.6038 77.631C39.7748 77.6448 39.8994 77.6711 39.9655 77.7074C40.0315 77.7437 40.0368 77.7888 39.981 77.8384C39.9252 77.8879 39.8101 77.9402 39.6468 77.9902C39.4835 78.0402 39.2775 78.0862 39.0487 78.1238C38.7169 78.1843 38.378 78.2422 38.0333 78.2973C38.0531 78.3307 38.3951 78.3361 38.3452 78.3662C38.2101 78.4622 38.1789 78.5521 38.2538 78.6289C38.3287 78.7056 38.5077 78.7671 38.7768 78.8084L36.9334 79.5861C35.8144 79.6939 34.7168 79.8766 33.8489 80.0995C33.8477 80.1361 33.8977 80.1667 33.9938 80.1883C34.0898 80.21 34.2286 80.2219 34.3963 80.2228C34.8463 80.2388 35.2714 80.2697 35.7562 80.2873C36.0526 80.3005 36.2992 80.3294 36.4817 80.3724C36.6643 80.4154 36.7791 80.4716 36.8196 80.5378L35.7372 80.8271C36.084 80.8977 36.3413 80.9315 36.5703 80.9748C36.4405 81.0657 36.2173 81.1598 35.918 81.2496C35.6187 81.3395 35.2513 81.4228 34.8442 81.4931C34.7351 81.5076 34.6237 81.5182 34.5167 81.5243C34.4097 81.5304 34.3092 81.5318 34.2213 81.5285C33.3831 81.4293 32.4025 81.6044 31.4502 81.7702C30.4979 81.9359 29.981 82.0357 29.2779 82.1646L27.9327 82.1819C27.5923 82.2429 27.2884 82.3147 27.0456 82.3914C26.8027 82.4682 26.6276 82.5478 26.5342 82.6239C26.6067 82.7463 27.2447 82.6792 27.625 82.6918C28.5271 82.768 29.7131 82.7518 30.9864 82.6458C31.3021 82.6067 31.6258 82.6382 31.933 82.642C32.5957 82.6572 33.2326 82.682 33.8408 82.7162C34.2413 82.7481 34.6156 82.7875 34.9612 82.8343C35.0536 82.9901 33.5999 83.1104 34.425 83.1873C34.1408 83.2225 34.0344 83.2715 33.8883 83.2538C32.9524 83.355 32.0303 83.405 31.2289 83.398C29.691 83.3766 27.9447 83.4475 26.133 83.6052C24.1774 83.7685 22.3016 83.8371 20.6602 83.8053C20.035 83.8034 19.3362 83.8368 18.6171 83.903C17.7678 83.9947 16.9245 84.0524 16.1419 84.0722C15.8828 84.0729 15.594 84.0885 15.2993 84.1178C15.0045 84.147 14.712 84.1891 14.4456 84.2405V84.2405C14.4687 84.2795 14.7226 84.3077 14.6661 84.3267C13.8561 84.6181 13.5276 84.9216 12.2808 85.2193C11.4284 85.3249 10.4497 85.4461 9.89236 85.3061C9.33497 85.1661 9.53473 85.0458 10.644 84.6875C10.4032 84.6823 10.1133 84.6991 9.82482 84.7348C9.53633 84.7705 9.26757 84.823 9.06546 84.883L8.10612 85.1511L7.24149 85.4075C7.31733 85.5354 7.37668 85.6356 7.43932 85.7413C7.53827 85.8536 7.42965 85.9902 7.12873 86.1321C6.94715 86.2096 6.78909 86.287 6.65602 86.3638C6.11549 86.671 5.95897 86.9612 6.204 87.2021C6.67352 87.5485 7.32731 87.8672 8.15784 88.1545C9.03513 88.4341 9.51524 88.7867 10.238 89.0913C10.6067 89.23 11.0544 89.3544 11.5765 89.463C12.5669 89.7046 13.652 89.9345 14.6457 90.1817C15.6394 90.4289 16.7613 90.6064 17.8648 90.8102C19.5079 91.052 21.2838 91.2608 23.1829 91.4355C24.358 91.5885 25.5647 91.7377 26.6517 91.9136C27.9355 92.1119 29.4437 92.2543 31.1387 92.3373C32.6358 92.4366 33.9734 92.5834 35.1258 92.7751C35.2467 92.7958 35.3421 92.8222 35.4094 92.8534C35.6169 93.0488 36.1984 93.1865 37.0651 93.2455C37.0124 93.3028 36.9451 93.3609 36.8634 93.4198C36.7431 93.49 36.7181 93.5557 36.7916 93.6083C36.8651 93.661 37.0337 93.6982 37.2756 93.7151C37.9689 93.7635 38.5451 93.8457 38.9785 93.9581C39.1377 93.9863 39.2364 94.0273 39.2662 94.0777C39.2961 94.1281 39.2562 94.1863 39.1499 94.2474C39.0558 94.3103 39.0489 94.3681 39.1301 94.4134C39.2113 94.4587 39.3769 94.4894 39.6055 94.5015C40.1923 94.561 40.8206 94.6089 41.4864 94.6448C42.9032 94.724 44.5511 94.7231 46.3307 94.642C46.5201 94.6186 46.7109 94.6546 46.9319 94.6273C48.1903 94.5364 49.3591 94.5224 50.2966 94.5868C51.3959 94.6119 52.5451 94.6069 53.7042 94.6186C55.3789 94.6107 56.9237 94.6585 58.2955 94.7606C59.8636 94.662 60.7447 94.8335 62.0683 94.8368C63.2902 94.8544 64.4485 94.8967 65.5319 94.9632C67.2786 95.0514 69.0186 95.1286 70.7403 95.2318C72.3555 95.2811 73.8426 95.3752 75.1765 95.5125C75.6878 95.5746 76.6131 95.4779 76.9613 95.608C77.3095 95.738 78.0121 95.7227 78.5798 95.7658L80.3713 95.8724C80.6793 95.8978 81.0181 95.9138 81.3824 95.9204C83.048 95.9291 84.2014 96.1027 85.7474 96.1382L85.9053 96.1186C88.6502 96.3768 91.7915 96.5185 95.2365 96.5395C97.249 96.6187 99.4494 96.6149 101.585 96.6729C102.094 96.789 103.297 96.646 103.936 96.752C104.575 96.858 105.618 96.7885 106.442 96.8059C107.265 96.8234 108.071 96.867 108.951 96.8654C109.715 96.8659 110.361 96.9133 110.828 97.0031C111.896 97.1517 113.198 97.2391 114.675 97.2613C116.63 97.2999 118.478 97.3875 120.466 97.3682C120.437 97.4765 120.559 97.5686 120.819 97.6351C121.079 97.7016 121.467 97.7401 121.944 97.7465C124.069 97.7879 125.997 97.8955 128.15 97.9273L128.727 97.9276L135.168 97.9898C136.904 98.0018 138.576 98.0216 140.346 98.0353C141.009 97.9532 141.025 98.0945 141.484 98.0676C141.612 97.998 141.763 97.9673 141.989 98.005L142.038 98.0885L149.39 98.1992C152.268 98.2801 155.295 98.3044 158.447 98.2718C159.194 98.28 159.892 98.3076 160.529 98.3543C161.119 98.3714 161.735 98.3789 162.372 98.3769C163.234 98.3558 164.076 98.3452 164.895 98.3451C167.049 98.3769 169.309 98.3598 171.667 98.3364C174.025 98.3131 175.812 98.3546 177.911 98.3514C179.333 98.3485 180.748 98.3345 182.219 98.3015C182.922 98.2862 183.787 98.2029 184.515 98.1725C185.243 98.1421 185.48 98.1425 185.576 98.1903C185.893 98.3243 186.689 98.2377 187.325 98.2246C188.565 98.2023 188.742 98.1566 189.079 97.8103L187.556 97.7003C187.183 97.6647 186.714 97.6585 186.194 97.6821C185.673 97.7058 185.12 97.7585 184.586 97.8352C184.376 97.8681 184.157 97.8941 183.94 97.9116C183.724 97.9292 183.515 97.938 183.325 97.9376C181.789 97.9188 180.275 97.8795 178.799 97.8473L178.583 97.8263L178.569 97.5174C178.765 97.4871 178.967 97.462 179.169 97.4431L186.573 97.2427C188.272 97.1935 190.037 97.0825 191.704 97.0372C193.372 96.9919 194.27 96.9643 195.564 96.9175C196.11 96.8908 196.667 96.8558 197.23 96.8126C197.198 96.7829 197.179 96.7513 197.174 96.7181C197.144 96.668 197.105 96.6012 197.344 96.5477C197.605 96.4721 197.954 96.4076 198.322 96.3669C198.666 96.3401 199.001 96.3249 199.312 96.322C200.813 96.2961 202.528 96.1329 204.091 95.8673L204.637 96.0446C206.984 95.945 209.366 95.8471 211.817 95.7525C212.308 95.7267 212.823 95.6772 213.324 95.6076C213.861 95.5412 214.355 95.4024 214.92 95.3264C215.478 95.2718 216.032 95.2292 216.573 95.1994C216.426 95.1537 216.233 95.1173 216 95.0911C215.77 95.0819 215.603 95.0534 215.523 95.0097C215.442 94.9661 215.452 94.9094 215.551 94.8481C215.726 94.7429 215.803 94.6438 215.423 94.6311C215.071 94.6071 214.82 94.5552 214.698 94.4814C214.576 94.4076 214.589 94.315 214.735 94.2146C214.799 94.1559 214.844 94.0985 214.87 94.0426V94.0426L215.028 94.023C215.549 93.8152 216.589 93.7402 217.335 93.5701C217.688 93.5208 218.052 93.4924 218.372 93.4895C219.197 93.4529 220.001 93.437 220.855 93.391C221.263 93.3698 221.689 93.3312 222.109 93.2774C222.709 93.2031 222.772 93.1953 223.121 92.9252C222.58 92.93 222.151 92.8896 221.907 92.811C221.663 92.7324 221.618 92.6205 221.781 92.494C222.227 92.2178 222.698 91.9265 224.717 91.7302C224.059 91.7206 223.425 91.7013 222.819 91.6727C222.643 91.6665 222.51 91.6462 222.44 91.6145C222.37 91.5828 222.366 91.5412 222.427 91.4953C222.488 91.4494 222.612 91.4014 222.783 91.3577C222.954 91.3139 223.163 91.2766 223.382 91.2506C224.447 91.0943 225.559 90.9897 226.592 90.9486C227.462 90.9304 228.248 90.9406 229.264 90.9401L230.464 90.7916C230.444 90.7582 230.62 90.7125 230.575 90.6941C230.27 90.5229 229.934 90.3555 229.588 90.1715C230.141 90.0721 230.62 89.9521 230.97 89.8253C231.321 89.6984 231.528 89.5699 231.569 89.4543C231.599 89.4195 231.591 89.3877 231.546 89.3613C231.501 89.3348 231.42 89.3144 231.309 89.3014C230.993 89.279 230.749 89.2364 230.596 89.1766C230.443 89.1169 230.385 89.0416 230.427 88.9568L231.36 88.6441C234.169 88.4211 236.927 88.2617 239.584 88.169L241.982 88.0989C242.271 88.0153 242.182 87.9786 241.91 87.9765C241.637 87.9744 240.872 87.9976 240.337 88.0101C239.875 88.0265 239.465 88.0157 239.146 87.9788C238.827 87.9419 238.611 87.8801 238.518 87.7994L239.323 87.4429C239.283 87.3761 239.227 87.2815 238.791 87.2879C238.492 87.2801 238.272 87.2465 238.166 87.1925C238.061 87.1384 238.075 87.067 238.207 86.9898C238.227 86.934 238.197 86.8832 238.118 86.8396C237.472 86.836 236.83 86.838 236.243 86.821C235.97 86.8154 235.74 86.7947 235.567 86.7604C235.395 86.7261 235.285 86.679 235.244 86.6222C235.223 86.5669 235.275 86.5038 235.395 86.4381C235.515 86.3724 235.7 86.3059 235.935 86.244C236.854 86.1675 237.694 86.1665 238.272 86.2413C238.478 86.2999 238.809 86.3319 239.221 86.3331C239.633 86.3343 240.107 86.3047 240.58 86.248C241.122 86.1828 241.663 86.1541 242.106 86.1671C242.548 86.1802 242.864 86.2341 242.995 86.3193C243.551 86.2862 244.044 86.2609 244.531 86.2245C245.105 86.1786 245.648 86.1651 246.101 86.1854C246.825 86.1998 247.605 86.1914 248.424 86.1604C250.784 86.0831 253.148 86.0113 255.433 85.9791C256.038 85.9699 256.561 85.9947 257.159 85.9744C257.756 85.9541 258.229 86.009 258.977 85.8985C259.12 85.8813 259.263 85.8702 259.396 85.8662C259.529 85.8622 259.648 85.8653 259.743 85.8753C261.056 85.9627 262.596 85.975 264.271 85.9116C266.567 85.8961 268.947 85.8521 271.245 85.8422C271.919 85.8507 272.556 85.8737 273.15 85.9109C273.601 85.9333 274.074 85.9485 274.566 85.9564C274.943 85.9635 275.303 85.9427 275.24 86.064C275.176 86.1854 275.741 86.1095 276.067 86.087C277.185 86.0282 278.329 85.9486 279.484 85.849C280.622 85.7407 281.737 85.6778 282.763 85.6638C283.503 85.6557 284.267 85.6865 285.22 85.5208C285.183 85.4596 285.147 85.3984 284.94 85.3345C285.716 85.1586 286.602 85.0074 287.525 84.8931C288.447 84.7789 289.379 84.705 290.243 84.6776L291.436 84.3448C291.729 84.3057 292.029 84.2773 292.316 84.2612C292.604 84.245 292.873 84.2416 293.108 84.2511C293.29 84.2559 293.511 84.2435 293.732 84.2163C293.952 84.189 294.157 84.1486 294.308 84.1025C294.534 84.0439 294.811 83.9934 295.103 83.9572C295.395 83.921 295.69 83.9008 295.95 83.8992C296.769 83.863 297.643 83.7794 298.483 83.6571C298.701 83.5853 298.838 83.5112 298.876 83.4438C298.915 83.3765 298.853 83.3188 298.699 83.278C298.451 83.2059 298.312 83.114 298.29 83.0079C298.267 82.9018 298.363 82.7838 298.571 82.6609C298.677 82.5854 298.712 82.514 298.675 82.4509C298.638 82.3878 298.528 82.3343 298.353 82.2937C297.699 82.1059 297.874 82.0006 298.943 81.689C299.117 81.6371 299.327 81.5885 299.558 81.5465C299.79 81.5044 300.039 81.4697 300.29 81.4447C300.878 81.3939 301.458 81.3561 302.019 81.332C302.335 81.2929 302.658 81.3245 303.022 81.3093C304.841 81.2333 305.107 81.1108 305.696 80.8467L306.126 80.6562C306.922 80.5019 307.792 80.3737 308.675 80.2809C309.558 80.1881 310.43 80.133 311.229 80.1196C311.547 80.1186 311.913 80.0922 312.269 80.0446C313.431 79.8988 314.607 79.7979 315.72 79.7486C316.414 79.7208 317.161 79.649 317.873 79.5418C318.585 79.4345 319.231 79.2964 319.733 79.144C320.184 79.0068 320.775 78.8835 321.422 78.7916C322.18 78.6977 322.25 78.5875 321.827 78.5025C321.404 78.4176 320.695 78.3083 320.066 78.219C319.847 78.1886 319.711 78.1393 319.674 78.0764C319.637 78.0135 319.699 77.9396 319.855 77.8629C319.955 77.7316 319.972 77.6071 319.906 77.4923C319.871 77.4445 319.896 77.3898 319.977 77.3318C320.059 77.2738 320.197 77.2138 320.381 77.1559C320.565 77.098 320.791 77.0436 321.044 76.9962C321.298 76.9489 321.572 76.9097 321.849 76.8814C323.017 76.7368 324.153 76.596 325.345 76.4903C325.844 76.4404 326.342 76.3787 326.828 76.3065C327.823 76.128 328.887 75.98 329.959 75.871C330.468 75.8223 330.965 75.7371 331.343 75.6338C332.537 75.3557 333.636 75.0633 334.622 74.7619C334.86 74.6685 335.171 74.5773 335.535 74.4941C335.9 74.4109 336.311 74.3375 336.742 74.2785C337.089 74.2355 337.371 74.1407 337.639 74.0777C337.834 73.9318 337.854 73.7968 337.699 73.6854C337.545 73.5741 337.219 73.4899 336.753 73.4409C336.312 73.3821 335.899 73.3139 335.517 73.2417C335.057 73.1834 334.51 73.1483 333.897 73.1378C333.17 73.1065 332.633 73.017 332.355 72.8809C334.344 72.6346 336.235 72.2809 337.979 72.3635L339.303 72.1398C339.251 72.0507 339.204 71.9729 339.161 71.9005C338.846 71.7689 338.748 71.6028 338.875 71.4165C338.979 71.3263 338.97 71.2443 338.847 71.1787C338.725 71.1131 338.495 71.0662 338.179 71.0429C336.308 70.8027 334.145 70.6407 332.391 70.3682C331.841 70.3171 331.197 70.2939 330.486 70.2995C329.799 70.2832 329.828 70.1602 330.619 70.0084C331.063 69.9291 331.515 69.8532 331.975 69.7808C334.001 69.7687 334.826 70.1323 337.139 70.031L338.21 69.5519C338.5 69.5445 338.781 69.5416 339.052 69.5432L342.929 69.7379C343.252 69.7476 343.503 69.7809 343.655 69.834C343.806 69.887 343.851 69.9577 343.785 70.038C343.758 70.1362 343.812 70.2263 343.943 70.305C344.027 70.3602 343.973 70.4334 343.793 70.5088C343.385 70.6787 343.908 70.7035 344.238 70.7462C344.323 70.7504 344.42 70.75 344.525 70.7449C344.629 70.7399 344.739 70.7304 344.848 70.7169C344.956 70.7035 345.062 70.6863 345.158 70.6665C345.253 70.6467 345.338 70.6246 345.406 70.6016C345.988 70.4399 346.497 70.2694 347.069 70.091C346.663 69.9204 347.141 69.6402 346.507 69.4858C346.436 69.455 346.408 69.4174 346.424 69.3754C346.44 69.3333 346.5 69.2878 346.6 69.2415C346.858 69.1219 346.981 69.0053 346.956 68.9035C346.931 68.8017 346.76 68.7183 346.459 68.6616L346.423 68.6004C347.216 68.3947 347.006 68.2117 347.317 67.994L348.08 67.8517C349.978 67.5092 349.982 67.5147 351.616 67.5273C351.945 67.397 351.527 67.3771 351.213 67.3623L348.585 67.216C346.866 67.1183 345.098 67.0506 343.178 67.0137C341.259 66.9767 339.119 66.8536 337.134 66.7649C337.034 66.758 336.957 66.7444 336.911 66.7253C336.864 66.7062 336.849 66.682 336.866 66.6548C336.945 66.6255 337.048 66.5971 337.168 66.5719C337.288 66.5468 337.422 66.5253 337.559 66.5093C338.19 66.4311 338.838 66.3807 339.511 66.3153L340.766 66.2017L341.151 66.0524C341.403 65.9616 341.574 65.8507 341.908 65.7855C342.184 65.7368 342.482 65.6999 342.774 65.6785C343.065 65.6571 343.338 65.6521 343.564 65.664C344.192 65.6937 344.76 65.7369 345.359 65.7761C345.959 65.8153 346.289 65.858 346.809 65.8773C347.864 65.886 348.885 65.9092 349.866 65.9466C350.691 66.035 351.455 66.1399 352.153 66.2605C352.587 66.3082 352.994 66.3653 353.737 66.3032C354.089 66.2468 354.393 66.1729 354.595 66.0943C354.796 66.0158 354.882 65.9378 354.838 65.8742C354.798 65.8243 354.685 65.7848 354.51 65.7595C354.335 65.7341 354.104 65.7238 353.837 65.7294C353.092 65.7202 352.403 65.6893 351.783 65.6374C350.921 65.5433 349.872 65.5027 348.697 65.518C348.298 65.5316 348.031 65.481 347.682 65.4645C347.333 65.448 347.038 65.4069 346.649 65.4372C345.442 65.5151 344.863 65.3957 344.139 65.3181C343.894 65.2837 343.742 65.2281 343.7 65.1574C343.658 65.0868 343.728 65.0037 343.901 64.9175C344.236 64.7458 344.644 64.5731 345.121 64.4022C345.366 64.3182 345.681 64.2384 346.039 64.1691C346.398 64.0998 346.792 64.0429 347.189 64.0028C347.426 63.8976 347.553 63.7942 347.558 63.7019C347.562 63.6096 347.444 63.5313 347.214 63.4741C346.628 63.3436 346.109 63.2108 344.797 63.2838C344.18 63.3116 343.599 63.317 343.078 63.2996C341.922 63.2758 340.588 63.3279 339.203 63.4511C338.845 63.4826 338.492 63.5041 338.157 63.515C335.761 63.5907 333.48 63.6284 331.191 63.6551C329.979 63.6679 328.756 63.664 327.491 63.7013C324.523 63.7823 321.821 63.7406 318.956 63.767C317.456 63.7806 316.113 63.7261 314.998 63.6063C314.781 63.5662 314.594 63.5193 314.44 63.4663C315.179 63.3272 315.991 63.2171 316.798 63.1465C317.604 63.0758 318.379 63.0471 319.047 63.063C319.415 63.1019 319.89 63.109 320.419 63.0835C320.948 63.058 321.511 63.0009 322.045 62.9186V62.9186L320.493 62.872C319.463 62.8502 318.409 62.8435 317.408 62.8122C315.817 62.7584 314.343 62.6722 312.695 62.6374C311.365 62.6053 310.175 62.5234 309.162 62.3941C308.431 62.2999 307.595 62.233 306.672 62.1949C306.016 62.1747 306.016 62.1747 305.597 61.9817C305.93 61.8569 306.36 61.8395 306.765 61.8371C309.194 61.7585 311.506 61.7448 313.654 61.7961C314.737 61.8006 315.698 61.8535 316.491 61.9523C316.685 61.9939 317.182 61.9742 317.581 61.9607C318.83 61.9401 320.025 61.946 321.149 61.9785C322.704 62.0326 324.436 62.0198 326.278 61.9405C326.627 61.8435 326.225 61.8515 326.205 61.8181C324.779 61.7559 323.381 61.6842 321.926 61.6314C321.529 61.6126 321.104 61.6033 320.656 61.6036C318.985 61.6363 317.592 61.5457 316.673 61.3445C316.627 61.2666 316.023 61.2758 315.755 61.2252C315.624 61.1815 315.536 61.13 315.495 61.0723C315.885 60.9286 316.325 60.9278 316.663 60.9276C317.647 60.9437 318.592 60.9741 319.496 61.0187C320.336 61.0612 321.266 61.0726 322.261 61.0525C322.995 61.0332 323.623 61.063 324.364 61.0549C324.765 61.0378 325.181 61.0103 325.603 60.9731C325.133 60.8729 324.495 60.8112 323.734 60.7925C323.156 60.7327 322.434 60.7146 322.341 60.5589C322.614 60.4474 322.918 60.4456 323.162 60.4572C323.67 60.4568 324.161 60.4638 324.632 60.4782C325.63 60.5099 326.711 60.5103 327.852 60.4795C328.453 60.468 329.023 60.4715 329.552 60.4899C330.753 60.5144 331.904 60.5689 333.003 60.594C335.255 60.6197 337.308 60.7117 339.472 60.7602C339.954 60.7723 340.385 60.8143 341.02 60.7417C341.655 60.6691 341.683 60.6596 341.758 60.6145C341.936 60.5392 341.989 60.4663 341.908 60.4107C341.782 60.3589 341.537 60.33 341.216 60.3292C339.282 60.2467 337.447 60.1309 335.724 59.9823C334.966 59.9525 334.301 59.8918 333.754 59.8023C333.319 59.7407 332.804 59.6999 332.225 59.6811C331.381 59.6366 330.502 59.6039 329.591 59.5833C329.167 59.5722 328.807 59.5392 328.531 59.4862C328.255 59.4332 328.069 59.3612 327.985 59.2746L329.102 58.987C329.278 58.9736 329.452 58.962 329.624 58.9522L338.896 59.1594L339.815 59.1651C340.821 59.148 341.067 59.1056 342.022 58.7723C339.843 58.6939 338.13 58.4654 337.054 58.1096C337.313 58.0713 337.578 58.0385 337.843 58.0118C339.584 57.9277 341.23 57.9053 342.718 57.9456C343.601 57.9496 344.51 57.9387 345.421 57.9332C345.155 57.7692 344.133 57.8181 343.467 57.7811C341.877 57.7232 340.47 57.6037 339.292 57.4263C338.886 57.3571 338.378 57.3129 337.792 57.2956C337.205 57.2897 336.714 57.2478 336.363 57.1737C336.012 57.0996 335.811 56.9954 335.777 56.8703C335.722 56.757 335.603 56.6517 335.422 56.556C335.742 56.4202 336.252 56.2902 336.854 56.1904C337.456 56.0905 338.11 56.0276 338.692 56.0136C339.936 55.9577 341.226 55.8662 342.53 55.7414C343.179 55.6784 343.816 55.6423 344.398 55.6353C344.912 55.63 345.496 55.5845 346.062 55.5059C346.627 55.4272 347.142 55.3198 347.529 55.1998C348.051 55.0515 348.538 54.9016 349.026 54.7517C349.513 54.6018 350.078 54.4123 350.647 54.2284C351.148 54.1996 351.637 54.1811 352.105 54.1732C352.47 54.1799 352.895 54.1599 353.331 54.1154C353.767 54.0709 354.196 54.0039 354.566 53.9222V53.9222C354.349 53.8416 354.103 53.7705 353.845 53.6771C354.2 53.5538 354.457 53.428 354.601 53.3075C354.745 53.187 354.773 53.0742 354.683 52.9761C354.63 52.887 355.016 52.7377 355.15 52.6197C355.321 52.5179 355.353 52.423 355.242 52.3472C355.131 52.2715 354.881 52.2186 354.525 52.1954C354.084 52.1525 353.725 52.088 353.463 52.0044C353.377 51.9827 353.332 51.953 353.335 51.918C353.337 51.883 353.386 51.8438 353.477 51.804C353.568 51.7642 353.699 51.7251 353.856 51.6902C354.013 51.6554 354.193 51.6259 354.378 51.6044C354.946 51.5436 355.51 51.5042 356.038 51.4885C356.947 51.4595 357.817 51.4413 358.649 51.4338C359.568 51.4226 360.591 51.3536 361.614 51.2338C362.53 51.1204 363.35 51.0187 363.798 50.802C364.246 50.5854 364.961 50.5923 365.512 50.4345C365.203 50.2923 364.653 50.1935 363.919 50.1481C363.438 50.1319 363.037 50.0893 362.741 50.0231C362.445 49.957 362.261 49.8686 362.2 49.7638L363.871 49.3239C365.205 49.1169 365.944 49.2762 367.385 49.1932L365.9 49.0308C365.87 49.0148 365.859 48.9959 365.867 48.9752C366.011 48.6468 366.241 48.5766 367.759 48.3945L368.612 48.2889L369.961 48.1636C370.177 48.0963 370.326 48.0261 370.394 47.9601C370.462 47.894 370.446 47.8344 370.348 47.7872C370.15 47.7079 370.09 47.6065 370.173 47.4924C370.304 47.4168 370.314 47.3471 370.203 47.2954C370.092 47.2437 369.866 47.2133 369.565 47.2094C369.324 47.2034 369.306 47.116 369.175 47.0665C369.045 46.9984 368.822 46.946 368.522 46.9131C368.222 46.8802 367.851 46.8675 367.435 46.8759C366.21 46.8827 365.058 46.8571 364.001 46.7996L364.191 46.7761C363.089 46.8266 362.06 46.8328 361.152 46.7942C360.242 46.7456 359.074 46.7768 358.108 46.7472C357.321 46.754 356.722 46.6868 356.438 46.5598C356.163 46.4386 355.163 46.4669 354.397 46.4901C353.944 46.5051 353.505 46.5114 353.087 46.5091C352.525 46.4816 351.823 46.5075 351.097 46.5823C350.879 46.6053 350.665 46.6175 350.474 46.6177C348.629 46.6491 346.787 46.6861 344.967 46.7026C344.547 46.6931 344.054 46.7148 343.547 46.765C343.333 46.7868 343.126 46.7958 342.952 46.7909C340.076 46.741 336.83 46.8682 334.011 46.7994C333.669 46.7832 333.291 46.7798 332.887 46.7894C331.978 46.8298 331.189 46.8038 330.64 46.7153C330.344 46.6682 329.963 46.6422 329.524 46.6391C329.085 46.6359 328.595 46.6557 328.088 46.697C327.243 46.7517 326.462 46.7576 325.827 46.7141C324.59 46.674 323.289 46.6575 321.935 46.6647C321.52 46.6718 321.155 46.6562 320.869 46.6191C320.582 46.5821 320.382 46.5247 320.283 46.4512C320.616 46.3264 320.98 46.3112 321.325 46.3222C322.664 46.2938 323.999 46.2598 325.313 46.2464C326.489 46.2081 327.617 46.1964 328.681 46.2114C329.209 46.2284 329.869 46.1897 330.515 46.1037C331.307 45.9949 332.123 45.9408 332.797 45.9524C333.297 45.9553 333.825 45.9459 334.373 45.9244C334.724 45.8985 335.084 45.854 335.415 45.7954C335.547 45.77 335.69 45.7486 335.835 45.7326C335.981 45.7166 336.126 45.7064 336.261 45.7027C336.396 45.6989 336.518 45.7016 336.619 45.7106C336.72 45.7197 336.798 45.7349 336.849 45.7552C337.356 45.9253 338.491 45.8385 339.462 45.8197C340.918 45.5319 342.002 45.7022 343.363 45.5397C343.47 45.5289 343.576 45.5223 343.674 45.5205C343.772 45.5186 343.86 45.5215 343.932 45.5288C346.566 45.6267 349.635 45.5451 352.4 45.5789C352.705 45.5838 353.059 45.5669 353.422 45.53C355.792 45.2859 358.071 45.2166 359.813 45.3356C360.025 45.3464 360.266 45.3468 360.525 45.337C361.716 45.24 362.855 45.2013 363.847 45.2242C365.401 45.2168 366.896 45.2228 368.475 45.2003C369.564 45.1684 370.519 45.2025 371.245 45.2992C371.268 45.3382 371.752 45.2962 372.122 45.2921C372.335 45.1941 372.52 45.1055 372.739 45.0186C372.936 44.9111 373.23 44.8023 373.601 44.6996C373.973 44.5968 374.414 44.5026 374.894 44.4233C375.715 44.3216 375.797 44.1741 375.223 44.1198C373.742 43.9403 371.881 43.8668 369.775 43.9047C368.014 43.9078 366.223 43.9147 364.437 43.9328C363.396 43.9483 362.298 43.9827 361.285 43.9888C360.943 44.002 360.592 44.0215 360.235 44.0471C359.797 44.0842 359.372 44.1045 358.983 44.1067C357.732 44.0755 356.336 44.1027 354.862 44.1871C354.322 44.2055 353.804 44.2117 353.314 44.2056C352.157 44.1827 350.902 44.1995 349.583 44.2557C348.763 44.2874 347.968 44.3039 347.206 44.3052C346.937 44.3087 346.718 44.2821 346.459 44.3022C344.178 44.5131 342.562 44.3608 340.509 44.4419C339.512 44.4645 338.558 44.4645 337.663 44.4421C335.916 44.4431 334.12 44.4663 332.282 44.5113C329.852 44.5853 327.6 44.5596 325.28 44.5902C324.822 44.5966 324.38 44.5955 323.957 44.5869C321.898 44.53 319.661 44.5421 317.302 44.6228C316.766 44.6345 316.285 44.6202 315.889 44.5809C315.492 44.5417 315.189 44.4782 314.998 44.3946C314.917 44.3372 314.97 44.2626 315.145 44.1853C315.436 44.0865 315.765 43.9897 316.126 43.8966L329.259 43.5839C329.81 43.5676 330.348 43.5588 330.87 43.5575C332.403 43.5548 333.984 43.5305 335.605 43.4847C337.206 43.4417 338.735 43.4493 340.286 43.4363C340.743 43.432 341.212 43.4218 341.691 43.4057C344.93 43.2782 348.088 43.2003 351.143 43.1726C352.429 43.1687 353.817 43.1101 355.128 43.0912C356.438 43.0722 358.23 43.0653 359.784 43.0579L364.597 43.059C365.544 43.0552 366.465 43.0665 367.384 43.0722C368.498 42.6654 368.882 42.5701 370.369 42.3919C370.878 42.3261 371.396 42.2869 371.861 42.2788C373.337 42.3109 375.19 42.1771 376.589 42.1948C377.434 42.1861 378.151 42.2313 378.666 42.3257C379.114 42.3999 379.626 42.4586 380.194 42.5009C381.749 42.1529 381.887 41.9269 380.716 41.839C380.399 41.8185 379.962 41.8248 379.733 41.7815C379.602 41.7552 379.422 41.7401 379.209 41.7375C378.996 41.7349 378.755 41.7448 378.504 41.7665C377.715 41.8235 376.975 41.8369 376.359 41.8054C375.779 41.7637 375.068 41.7653 374.294 41.8102C373.726 41.8806 373.227 41.7812 372.735 41.7525C372.244 41.7238 371.84 41.6722 371.073 41.7493C370.932 41.7647 370.793 41.7739 370.665 41.7763C370.537 41.7787 370.424 41.7741 370.336 41.763C369.511 41.7134 368.527 41.7186 367.464 41.7783C365.833 41.837 364.303 41.8392 362.927 41.7848C362.103 41.7372 361.401 41.6528 360.847 41.5348C360.696 41.4953 360.472 41.4717 360.197 41.4661C358.812 41.4907 357.308 41.5833 355.783 41.738C355.208 41.8 354.634 41.849 354.073 41.884C352.921 41.9619 351.806 42.0055 350.761 42.0136C349.244 42.0148 347.664 42.0448 346.036 42.1031C345.032 42.1356 344.063 42.1476 343.143 42.1389C342.198 42.1349 341.188 42.1596 340.137 42.2127C339.092 42.2559 338.171 42.231 337.485 42.141C337.259 42.0925 337.078 42.0349 336.943 41.9693C338.473 41.7558 340.056 41.6473 341.372 41.6656C341.872 41.6515 342.287 41.6657 342.814 41.5826L342.83 41.6104C342.935 41.6284 343.093 41.6327 343.274 41.6224C343.456 41.612 343.648 41.5878 343.813 41.5543V41.5543C343.751 41.4486 343.691 41.3484 343.649 41.2761C342.646 41.2889 341.672 41.2878 340.732 41.273C339.94 41.2517 338.865 41.4386 338.179 41.3682C336.842 41.4562 335.991 41.3347 334.792 41.3698C333.592 41.4048 332.272 41.5206 331.073 41.5557C330.026 41.5749 329.01 41.5791 328.03 41.5682C327.692 41.5529 327.302 41.5565 326.884 41.5788C326.297 41.6206 325.751 41.6276 325.308 41.599C324.866 41.5704 324.545 41.5072 324.382 41.4169C324.535 41.3322 324.742 41.223 324.98 41.11C324.542 41.017 323.877 40.9779 323.084 40.9984L321.963 40.9939C321.666 40.9964 321.439 40.9712 321.329 40.9238C321.218 40.8763 321.234 40.81 321.371 40.7387C323.497 40.3799 323.575 40.3404 325.135 40.5712L327.206 40.4639L327.171 40.4623ZM299.155 41.4479L299.312 41.4284L299.155 41.4479ZM41.0218 79.6232L41.058 79.6844L41.0185 79.6177L40.6712 79.6607L40.6482 79.6217L41.0218 79.6232ZM91.4422 52.7992C91.933 52.7325 92.4286 52.6711 92.926 52.6155C93.0562 52.6068 93.178 52.6049 93.2812 52.6098C93.3844 52.6147 93.4659 52.6263 93.5188 52.6436C93.5583 52.7103 93.2807 52.7567 93.0282 52.7879C92.7097 52.83 92.3843 52.8568 92.0857 52.8654C91.787 52.8741 91.5257 52.8643 91.329 52.8371L91.0436 52.8128L91.4422 52.7992ZM344.262 69.0711C343.939 69.0824 343.632 69.0842 343.35 69.0766C342.098 69.0226 340.9 68.9441 339.616 68.8941C337.997 68.767 336.136 68.7153 334.103 68.7408C333.309 68.7532 332.639 68.7121 332.169 68.622C331.888 68.5737 331.526 68.5455 331.103 68.539L325.73 68.3924C325.398 68.3619 325.111 68.3192 324.875 68.2653C325.349 68.2067 325.665 68.1676 325.854 68.1441C326.247 68.1375 326.585 68.1554 326.834 68.196C327.101 68.2647 327.552 68.2919 328.099 68.2722C328.65 68.2558 329.188 68.2471 329.71 68.2458C330.694 68.2493 331.686 68.2638 332.674 68.2729C333.058 68.4641 334.193 68.3773 335.165 68.3585L335.915 68.3671C338.369 68.4662 340.712 68.6026 342.935 68.7757C343.364 68.8049 343.734 68.8516 344.034 68.9143C344.146 68.9632 344.182 69.0241 344.139 69.0923L344.297 69.0728L344.262 69.0711ZM234.698 87.3587C234.103 87.3718 233.483 87.3985 232.848 87.4386C232.358 87.4796 231.881 87.5044 231.434 87.5122C228.932 87.5551 226.324 87.6541 223.646 87.8079C223.296 87.8312 222.959 87.8426 222.649 87.8418L220.458 87.8027C219.767 87.7808 219.754 87.7585 220.256 87.4633C220.674 87.406 221.096 87.3538 221.519 87.3069C221.772 87.2756 222.182 87.2248 222.278 87.2726C222.864 87.4031 223.932 87.3186 224.831 87.2909C227.432 87.2196 230.114 87.1143 232.74 87.028C233.295 87.0069 233.833 86.9962 234.348 86.9961C234.667 86.9916 234.959 87 235.21 87.0207C235.283 87.0228 235.344 87.029 235.39 87.0388C235.435 87.0487 235.463 87.0619 235.473 87.0777C235.482 87.0935 235.472 87.1114 235.444 87.1304C235.416 87.1494 235.369 87.1689 235.308 87.1876C235.094 87.2533 234.845 87.3163 234.572 87.3744L234.698 87.3587ZM215.645 44.517L213.083 44.482C212.775 44.4783 212.515 44.4389 212.186 44.4557C210.431 44.5091 208.807 44.4942 207.382 44.4117C206.896 44.3781 206.329 44.3713 205.709 44.3919C203.814 44.4529 202.026 44.4554 200.394 44.3994C199.339 44.3881 198.351 44.3504 197.446 44.2866C197.377 44.2718 197.333 44.2518 197.319 44.2278C197.305 44.2038 197.32 44.1764 197.364 44.1476C197.375 44.1293 197.406 44.1097 197.455 44.0901C197.503 44.0704 197.568 44.0512 197.645 44.0338C197.721 44.0164 197.808 44.0011 197.899 43.9891C197.989 43.977 198.082 43.9685 198.17 43.9641C199.313 43.8778 200.399 43.8478 201.337 43.8764C202.208 43.9106 203.145 43.9206 204.134 43.9063C205.08 43.9025 205.723 44.014 206.892 43.9289C207.387 43.9009 207.823 43.9101 208.128 43.9551C208.74 44.0295 209.595 44.0337 210.541 43.9667C211.106 43.9329 211.647 43.9183 212.142 43.9237C213.342 43.9482 214.49 43.9972 215.602 44.0446C215.953 44.0555 216.328 44.057 216.723 44.0491L222.293 43.9563C223.632 43.9279 224.967 43.8939 226.281 43.8805C227.355 43.8514 228.355 43.8605 229.245 43.9075C230.194 43.9569 231.229 43.977 232.331 43.9673C234.041 43.9944 235.741 44.0047 237.603 44.0011C238.791 44.0033 240.006 43.9961 241.247 43.9738C241.874 43.9451 242.407 43.9685 242.743 44.0393C242.947 44.0977 243.427 44.0501 243.826 44.0366C245.952 43.9061 247.946 43.8752 249.668 43.946C249.888 43.9575 250.13 43.9617 250.387 43.9585C252.046 43.956 253.765 43.9402 255.358 43.94C255.777 43.9455 256.172 43.9606 256.537 43.9851C256.498 44.0251 256.386 44.0684 256.226 44.1061C256.065 44.1438 255.867 44.173 255.674 44.1875C254.168 44.2992 252.713 44.3582 251.372 44.362C249.139 44.3478 246.801 44.3798 244.38 44.4576C242.502 44.5361 240.789 44.5196 239.37 44.4093C238.26 44.327 236.817 44.358 235.288 44.4969C234.633 44.5632 233.998 44.5897 233.469 44.5728C232.96 44.5506 232.375 44.556 231.75 44.5886C230.432 44.6507 229.164 44.6795 227.971 44.6744C226.806 44.6516 225.718 44.5892 224.521 44.5703C223.324 44.5513 221.5 44.5622 220.024 44.53C218.548 44.4979 217.088 44.4935 215.645 44.517ZM321.817 41.2628C321.682 41.4348 321.203 41.5419 320.688 41.5877C318.912 41.7914 317.157 41.8781 315.717 41.8332C314.938 41.7706 313.901 41.7947 312.808 41.9008C311.536 42.011 310.347 42.0293 309.45 41.9524C309.231 41.939 309.062 41.9105 308.961 41.8697C308.941 41.8363 308.905 41.7751 308.898 41.764C308.992 41.7358 309.108 41.7096 309.236 41.6876C309.364 41.6655 309.501 41.6481 309.636 41.6368L315.517 41.4399L316.542 41.3965C318.414 41.283 320.198 41.2378 321.817 41.2628V41.2628ZM310.249 43.9855C309.331 44.2664 309.327 44.2608 308.857 44.3251C306.588 44.5918 304.321 44.7358 302.325 44.7399C301.882 44.7391 301.505 44.7119 301.228 44.6608C301.085 44.6539 300.994 44.6319 300.975 44.5995C300.956 44.5672 301.01 44.5273 301.126 44.4883L301.856 44.2904C303.181 44.2048 304.488 44.1367 305.768 44.0866C307.257 44.0275 308.578 44.0252 310.122 44.0011L310.249 43.9855ZM234.808 86.1149C233.953 86.5015 233.95 86.4959 232.518 86.5957C231.52 86.6663 230.552 86.7078 229.643 86.7189C228.532 86.7311 227.392 86.7527 226.284 86.7705C226.014 86.7828 225.785 86.7726 225.641 86.7418C225.498 86.711 225.45 86.6619 225.508 86.6039C225.653 86.541 225.881 86.4801 226.153 86.4312C226.426 86.3823 226.727 86.3482 227.009 86.3344L227.613 86.3252C228.347 86.306 229.11 86.2772 229.819 86.273C230.279 86.289 230.812 86.2766 231.376 86.2368C231.941 86.197 232.521 86.1307 233.072 86.0434L234.808 86.1149ZM305.681 41.7683C305.453 41.8352 305.195 41.8993 304.913 41.9589C303.824 42.1241 302.671 42.2179 301.68 42.222C301.212 42.2322 300.784 42.1957 300.307 42.2488C299.452 42.3197 298.623 42.3575 297.865 42.3601C297.865 42.3601 297.653 42.3446 297.583 42.3413L297.438 42.0965C297.797 42.0398 298.171 41.9934 298.543 41.9596C299.792 41.8945 301.019 41.85 302.244 41.7999C303.468 41.7498 303.895 41.7268 304.695 41.7053C305.052 41.7171 305.383 41.7382 305.681 41.7683ZM332.732 72.2012L331.097 72.7023C330.568 72.7458 330.074 72.7537 329.69 72.7247C329.305 72.6958 329.052 72.6316 328.969 72.5418C328.834 72.4999 328.821 72.4377 328.931 72.3683C329.042 72.299 329.268 72.2278 329.562 72.1698C329.844 72.1011 330.167 72.0394 330.51 71.9887C330.853 71.938 331.209 71.8994 331.556 71.8751L332.732 72.2012ZM319.121 69.7065C320.191 69.6216 321.213 69.5868 322.111 69.605C322.677 69.6547 323.443 69.6388 324.254 69.5606C325.727 69.4047 327.147 69.3616 328.215 69.4402C328.215 69.4402 328.254 69.507 328.435 69.5264C328.616 69.5458 327.899 69.5929 327.741 69.6124C326.583 69.6602 325.419 69.6969 324.412 69.7141C323.788 69.7134 323.127 69.7291 322.441 69.7612C321.498 69.8106 320.603 69.8266 319.792 69.8086C319.792 69.8086 319.478 69.7937 319.125 69.7121L319.121 69.7065ZM204.941 43.6093C205.451 43.5149 206.005 43.4382 206.56 43.3849C207.116 43.3317 207.658 43.3032 208.147 43.3017C208.522 43.2968 208.824 43.3217 209.008 43.3725C209.192 43.4233 209.245 43.4971 209.161 43.5823C208.782 43.6292 208.277 43.6918 207.992 43.727C207.008 43.7235 206.168 43.6783 204.941 43.6093ZM109.346 51.5611C109.756 51.4852 110.208 51.4271 110.649 51.3935C111.091 51.36 111.504 51.3523 111.843 51.3713C112.018 51.3796 111.899 51.4659 111.929 51.516C111.948 51.5273 111.948 51.5415 111.928 51.5569C111.909 51.5723 111.87 51.5884 111.817 51.6036C111.763 51.6187 111.697 51.6324 111.625 51.643C111.553 51.6537 111.478 51.661 111.407 51.6643C110.962 51.697 110.543 51.7067 110.186 51.6926C109.828 51.6785 109.545 51.641 109.36 51.5834L109.346 51.5611ZM102.942 52.647C103.005 52.6022 103.14 52.5555 103.321 52.5154C103.503 52.4754 103.719 52.4447 103.931 52.429C104.304 52.4269 104.643 52.4393 104.935 52.4658C105.252 52.4863 105.024 52.616 104.595 52.693C104.414 52.7239 104.22 52.748 104.029 52.7634C103.838 52.7788 103.655 52.7851 103.495 52.7817C103.335 52.7783 103.202 52.7654 103.107 52.7439C103.012 52.7225 102.958 52.6931 102.948 52.6582L102.942 52.647ZM289.054 42.245C290.01 42.0849 290.745 42.1252 291.554 42.0608C292.363 41.9964 292.563 41.9896 292.454 42.0927C292.346 42.1957 291.791 42.1748 291.444 42.2178C290.975 42.2748 290.503 42.3076 290.081 42.3124C289.659 42.3172 289.303 42.2939 289.054 42.245V42.245ZM89.929 69.3438C90.4351 69.3078 90.9309 69.2824 91.4089 69.268C91.4718 69.2829 91.5112 69.3024 91.5248 69.3253C91.5384 69.3482 91.5259 69.3741 91.4881 69.4015C91.4881 69.4015 91.1639 69.4834 90.9745 69.5069C90.2767 69.5874 90.2423 69.4722 89.929 69.3438V69.3438ZM18.3913 84.2654C18.0488 84.3735 17.889 84.4471 17.6148 84.4989C17.4888 84.517 17.3586 84.53 17.2338 84.5372C17.109 84.5444 16.9928 84.5455 16.8939 84.5405C16.7733 84.5093 16.7451 84.4616 16.8147 84.4069C16.8147 84.4069 17.1638 84.31 17.2967 84.3054C17.6758 84.2825 18.0432 84.2691 18.3913 84.2654V84.2654ZM305.32 41.3293C306.046 41.2394 306.74 41.1534 307.243 41.2583C306.09 41.3713 306.09 41.3713 305.32 41.3293ZM293.559 42.3559C294.292 42.1636 294.722 42.1461 295.074 42.1682C295.149 42.1738 295.199 42.1862 295.215 42.2036C295.232 42.2209 295.215 42.2423 295.167 42.2645C295.119 42.2866 295.042 42.3084 294.949 42.3264C294.855 42.3444 294.75 42.3577 294.648 42.3643C294.266 42.3699 293.901 42.3671 293.559 42.3559V42.3559ZM255.823 42.4373C255.806 42.4094 255.786 42.3761 255.976 42.3526C256.025 42.3407 256.084 42.3304 256.145 42.3229C256.206 42.3153 256.267 42.3108 256.323 42.3096C256.323 42.3096 256.343 42.343 256.356 42.3652L255.823 42.4373ZM229.618 88.621L230.039 88.6464L229.85 88.6699L229.35 88.684L229.618 88.621ZM81.1318 52.213C81.2896 52.1934 81.4475 52.1739 81.4706 52.2128C81.5039 52.2188 81.5245 52.2275 81.5308 52.2382C81.5371 52.2488 81.5289 52.2611 81.5069 52.274C81.5069 52.274 81.2858 52.3014 81.1911 52.3131L81.1318 52.213ZM105.715 52.5244C105.819 52.5222 105.913 52.5248 105.991 52.5321C105.991 52.5321 106.011 52.5655 106.011 52.5655L105.695 52.6046L105.715 52.5244ZM319.955 60.4781C320.077 60.4579 320.206 60.4419 320.334 60.4312L320.492 60.4117C320.492 60.4117 320.322 60.4685 320.228 60.4802C320.133 60.492 320.057 60.4775 319.955 60.4781Z" fill="#FFBE21"/>
</g>
<path fill-rule="evenodd" clip-rule="evenodd" d="M204.676 33.1996C205.461 31.3255 206.337 29.5962 207.25 28.0869C209.036 25.1345 211.744 21.9104 214.286 20.5486C216.028 19.6152 217.693 19.5624 218.954 20.985C221.355 23.6947 221.979 30.1916 221.47 37.5386C221.098 42.897 220.128 48.698 218.853 53.7077C220.366 50.9688 222.338 48.1354 224.281 46.6869C226.46 45.0595 228.599 45.1537 230.075 48.8484C233.159 56.5719 231.909 66.2261 228.916 74.2717C225.977 82.1745 221.342 88.4838 217.604 89.7397C217.406 89.8048 217.251 89.5032 217.258 89.0658C217.264 88.6284 217.43 88.2195 217.628 88.1545C221.19 86.9553 225.6 80.9195 228.401 73.388C231.149 65.9995 232.335 57.1251 229.503 50.0346C228.203 46.7805 226.308 46.7655 224.389 48.1987C222.393 49.6902 220.368 52.7299 218.893 55.5148C218.494 56.2676 218.091 57.017 217.691 57.7778C216.647 61.0433 215.481 63.6978 214.315 65.2929C214.025 65.6867 213.88 65.3354 213.842 65.2314C213.79 65.0899 213.737 64.8462 213.808 64.46C213.821 64.3874 213.855 64.2466 213.916 64.0782C214 63.8508 214.188 63.4145 214.266 63.2088C214.586 62.3547 214.94 61.5386 215.289 60.7436C215.894 59.3587 216.541 58.0705 217.199 56.8137C217.291 56.5218 217.381 56.228 217.471 55.9294C219.072 50.5728 220.333 43.7718 220.762 37.585C221.226 30.8994 220.728 24.9109 218.543 22.4454C217.405 21.1619 215.898 21.2636 214.326 22.1057C211.897 23.4071 209.31 26.4928 207.603 29.3145C206.56 31.0381 205.568 33.0624 204.715 35.2656C204.432 35.9968 204.177 36.7927 203.933 37.5836C203.906 37.6705 203.869 37.7975 203.828 37.9425C203.724 38.3681 203.612 38.7835 203.494 39.1877C203.431 39.4006 203.387 39.4877 203.379 39.5034C203.17 39.9162 203.01 39.7424 202.942 39.645C202.922 39.616 202.716 39.2984 202.864 38.6654C202.894 38.5371 203.083 37.8358 203.234 37.3032C204.343 32.767 204.594 27.0569 203.969 22.8493C203.573 20.1821 202.823 18.1151 201.69 17.4184C200.936 16.9554 200.017 17.1049 198.931 18.0513C196.313 20.3336 194.174 24.7554 192.295 29.8104C190.373 34.9816 188.724 40.8191 187.13 45.8136C187.005 46.2029 186.78 46.3484 186.626 46.1381C186.472 45.9281 186.448 45.4413 186.572 45.0519C188.179 40.0188 189.843 34.139 191.78 28.9276C193.76 23.6002 196.025 18.9743 198.785 16.569C200.048 15.4678 201.116 15.3267 201.992 15.8655C203.304 16.6717 204.196 19.0162 204.654 22.1041C205.133 25.3311 205.136 29.3672 204.676 33.1996Z" fill="#A15842"/>
</svg>
