<svg width="39" height="43" viewBox="0 0 39 43" fill="none" xmlns="http://www.w3.org/2000/svg">
<path d="M15 24.1895V18.9395C15 18.6895 14.875 18.5645 14.625 18.5645H12.375C12.125 18.5645 12 18.6895 12 18.9395V24.1895C12 24.4395 12.125 24.5645 12.375 24.5645H14.625C14.875 24.5645 15 24.4395 15 24.1895ZM27 24.1895V18.9395C27 18.6895 26.875 18.5645 26.625 18.5645H24.375C24.125 18.5645 24 18.6895 24 18.9395V24.1895C24 24.4395 24.125 24.5645 24.375 24.5645H26.625C26.875 24.5645 27 24.4395 27 24.1895ZM39 24.9395V42.5645H24V35.0645C24 33.8145 23.5625 32.752 22.6875 31.877C21.8125 31.002 20.75 30.5645 19.5 30.5645C18.25 30.5645 17.1875 31.002 16.3125 31.877C15.4375 32.752 15 33.8145 15 35.0645V42.5645H0V24.9395C0 24.6895 0.125 24.5645 0.375 24.5645H2.625C2.875 24.5645 3 24.6895 3 24.9395V27.5645H6V12.9395C6 12.6895 6.125 12.5645 6.375 12.5645H8.625C8.875 12.5645 9 12.6895 9 12.9395V15.5645H12V12.9395C12 12.6895 12.125 12.5645 12.375 12.5645H14.625C14.875 12.5645 15 12.6895 15 12.9395V15.5645H18V12.9395C18 12.8457 18.0156 12.7754 18.0469 12.7285C18.0938 12.666 18.1641 12.627 18.2578 12.6113C18.3516 12.5801 18.4219 12.5645 18.4688 12.5645C18.5313 12.5488 18.625 12.5488 18.75 12.5645C18.875 12.5645 18.9453 12.5645 18.9609 12.5645V3.40039C18.4609 3.16601 18.2109 2.77539 18.2109 2.22851C18.2109 1.86914 18.3359 1.56445 18.5859 1.31445C18.8516 1.06445 19.1563 0.939451 19.5 0.939451C19.8438 0.939451 20.1406 1.06445 20.3906 1.31445C20.6563 1.56445 20.7891 1.86914 20.7891 2.22851C20.7891 2.77539 20.5391 3.16601 20.0391 3.40039V3.79883C20.7422 3.64258 21.3906 3.56445 21.9844 3.56445C22.3125 3.56445 22.7734 3.62695 23.3672 3.75195C23.9766 3.86133 24.4063 3.91601 24.6563 3.91601C24.9219 3.91601 25.2891 3.86133 25.7578 3.75195C26.2266 3.62695 26.5156 3.56445 26.625 3.56445C26.875 3.56445 27 3.68945 27 3.93945V8.86133C27 9.0957 26.7266 9.26758 26.1797 9.37695C25.6328 9.4707 25.1484 9.51758 24.7266 9.51758C24.4453 9.51758 24.0156 9.46289 23.4375 9.35351C22.875 9.22852 22.4453 9.16602 22.1484 9.16602C21.5234 9.16602 20.8203 9.25977 20.0391 9.44726V12.5645C20.0547 12.5645 20.125 12.5645 20.25 12.5645C20.375 12.5488 20.4609 12.5488 20.5078 12.5645C20.5703 12.5645 20.6484 12.5801 20.7422 12.6113C20.8359 12.627 20.8984 12.666 20.9297 12.7285C20.9766 12.7754 21 12.8457 21 12.9395V15.5645H24V12.9395C24 12.6895 24.125 12.5645 24.375 12.5645H26.625C26.875 12.5645 27 12.6895 27 12.9395V15.5645H30V12.9395C30 12.6895 30.125 12.5645 30.375 12.5645H32.625C32.875 12.5645 33 12.6895 33 12.9395V27.5645H36V24.9395C36 24.6895 36.125 24.5645 36.375 24.5645H38.625C38.875 24.5645 39 24.6895 39 24.9395Z" fill="white"/>
</svg>
