<svg width="42" height="37" viewBox="0 0 42 37" fill="none" xmlns="http://www.w3.org/2000/svg">
<path d="M30 21.5645H37.1484C37.0703 21.6582 36.9922 21.7441 36.9141 21.8223C36.8359 21.8848 36.7656 21.9395 36.7031 21.9863L36.6328 22.0801L22.0313 36.1426C21.75 36.4238 21.4063 36.5645 21 36.5645C20.5938 36.5645 20.25 36.4238 19.9688 36.1426L5.34375 22.0332C5.26563 22.002 5.10156 21.8457 4.85156 21.5645H13.5C13.8438 21.5645 14.1484 21.4629 14.4141 21.2598C14.6953 21.041 14.875 20.7676 14.9531 20.4395L16.5938 13.8535L21.0469 29.4863C21.1406 29.7988 21.3203 30.0566 21.5859 30.2598C21.8516 30.4629 22.1563 30.5645 22.5 30.5645C22.8281 30.5645 23.125 30.4629 23.3906 30.2598C23.6563 30.0566 23.8359 29.7988 23.9297 29.4863L27.3516 18.1191L28.6641 20.7441C28.9453 21.291 29.3906 21.5645 30 21.5645ZM42 11.5332C42 13.7988 41.1953 16.1426 39.5859 18.5645H30.9375L28.3359 13.3848C28.2109 13.1191 28.0078 12.9082 27.7266 12.752C27.4609 12.5957 27.1797 12.5332 26.8828 12.5645C26.1797 12.6426 25.7422 13.002 25.5703 13.6426L22.5469 23.7207L17.9531 7.64258C17.8594 7.33008 17.6719 7.07226 17.3906 6.86914C17.125 6.66601 16.8203 6.56445 16.4766 6.56445C16.1328 6.56445 15.8281 6.67383 15.5625 6.89258C15.2969 7.0957 15.125 7.36133 15.0469 7.68945L12.3281 18.5645H2.41406C0.804688 16.1426 0 13.7988 0 11.5332C0 8.0957 0.992188 5.4082 2.97656 3.4707C4.96094 1.5332 7.70313 0.564451 11.2031 0.564451C12.1719 0.564451 13.1563 0.736326 14.1563 1.08008C15.1719 1.4082 16.1094 1.86133 16.9688 2.43945C17.8438 3.00195 18.5938 3.5332 19.2188 4.0332C19.8438 4.5332 20.4375 5.06445 21 5.62695C21.5625 5.06445 22.1563 4.5332 22.7813 4.0332C23.4063 3.5332 24.1484 3.00195 25.0078 2.43945C25.8828 1.86133 26.8203 1.4082 27.8203 1.08008C28.8359 0.736326 29.8281 0.564451 30.7969 0.564451C34.2969 0.564451 37.0391 1.5332 39.0234 3.4707C41.0078 5.4082 42 8.0957 42 11.5332Z" fill="white"/>
</svg>
