<svg width="741" height="432" viewBox="0 0 741 432" fill="none" xmlns="http://www.w3.org/2000/svg">
<path fill-rule="evenodd" clip-rule="evenodd" d="M41.4285 40.4434C64.1511 40.4434 82.5714 58.8571 82.5714 81.5716C82.5714 229.216 202.303 348.905 350 348.905C497.697 348.905 617.428 229.216 617.428 81.5716C617.428 58.8571 635.849 40.4434 658.571 40.4434C681.294 40.4434 699.714 58.8571 699.714 81.5716C699.714 274.645 543.142 431.162 350 431.162C156.858 431.162 0.285645 274.645 0.285645 81.5716C0.285645 58.8571 18.7059 40.4434 41.4285 40.4434Z" fill="#FEC909"/>
<path fill-rule="evenodd" clip-rule="evenodd" d="M41.4285 80.2864C42.1386 80.2864 42.7143 80.8618 42.7143 81.5716C42.7143 251.221 180.291 388.748 350 388.748C519.709 388.748 657.286 251.221 657.286 81.5716C657.286 80.8618 657.861 80.2864 658.571 80.2864C659.281 80.2864 659.857 80.8618 659.857 81.5716C659.857 252.64 521.129 391.319 350 391.319C178.871 391.319 40.1428 252.64 40.1428 81.5716C40.1428 80.8618 40.7185 80.2864 41.4285 80.2864Z" fill="#018539"/>
<g filter="url(#filter0_d_202_2)">
<path d="M658.571 62.9475L712.883 11.348L718.973 4.98475C721.955 1.86954 726.912 1.80303 729.976 4.83713L735.617 10.4228C738.548 13.3252 738.676 18.0193 735.907 21.0768L729.543 28.1049L677.379 81.5717H658.571V62.9475Z" fill="white"/>
</g>
<path fill-rule="evenodd" clip-rule="evenodd" d="M677.379 81.5717L729.543 28.1049L712.883 11.348L658.571 62.9475V76.4306V81.5717H663.714H677.379ZM724.121 26.2984L714.645 16.7667L663.714 65.154V76.4306H675.211L724.121 26.2984Z" fill="black"/>
<path fill-rule="evenodd" clip-rule="evenodd" d="M735.907 21.0768C738.676 18.0193 738.548 13.3252 735.617 10.4228L729.976 4.83713C726.912 1.80303 721.955 1.86954 718.973 4.98475L712.883 11.348L729.543 28.1049L735.907 21.0768ZM718.288 13.1377L727.641 22.545L732.095 17.6266C733.018 16.6074 732.975 15.0427 731.998 14.0752L726.357 8.48958C725.336 7.47821 723.683 7.50038 722.69 8.53879L718.288 13.1377Z" fill="black"/>
<defs>
<filter id="filter0_d_202_2" x="655.571" y="0.604248" width="85.3313" height="84.9674" filterUnits="userSpaceOnUse" color-interpolation-filters="sRGB">
<feFlood flood-opacity="0" result="BackgroundImageFix"/>
<feColorMatrix in="SourceAlpha" type="matrix" values="0 0 0 0 0 0 0 0 0 0 0 0 0 0 0 0 0 0 127 0" result="hardAlpha"/>
<feOffset dy="1"/>
<feGaussianBlur stdDeviation="1.5"/>
<feColorMatrix type="matrix" values="0 0 0 0 0 0 0 0 0 0 0 0 0 0 0 0 0 0 0.35 0"/>
<feBlend mode="normal" in2="BackgroundImageFix" result="effect1_dropShadow_202_2"/>
<feBlend mode="normal" in="SourceGraphic" in2="effect1_dropShadow_202_2" result="shape"/>
</filter>
</defs>
</svg>
