<svg width="279" height="432" viewBox="0 0 279 432" fill="none" xmlns="http://www.w3.org/2000/svg">
<path d="M184.814 152.58C184.814 152.58 200.382 185.806 200.382 187.56C200.382 189.314 186.568 196.828 183.937 198.406C181.896 199.569 179.793 200.618 177.637 201.549L179.215 216.942C179.215 216.942 202.999 211.518 212.968 206.095C222.937 200.672 222.586 194.547 220.277 185.455C217.967 176.363 202.604 141.222 202.604 141.222L184.814 152.58Z" fill="#E1E1E6"/>
<g style="mix-blend-mode:multiply" opacity="0.5">
<path d="M212.925 206.095C222.894 200.672 222.543 194.547 220.234 185.455C217.924 176.363 202.561 141.222 202.561 141.222L200.076 142.8L199.286 144.262C199.286 144.262 213.626 179.462 214.489 191.185C215.074 199.064 199.213 208.887 188.732 214.5C196.509 212.439 207.092 209.267 212.925 206.095Z" fill="#BBBBBF"/>
</g>
<path d="M184.814 152.58C184.814 152.58 200.382 185.806 200.382 187.56C200.382 189.314 186.568 196.828 183.937 198.406C181.896 199.569 179.793 200.618 177.637 201.549L179.215 216.942C179.215 216.942 202.999 211.518 212.968 206.095C222.937 200.672 222.586 194.547 220.277 185.455C217.967 176.363 202.604 141.222 202.604 141.222L184.814 152.58Z" stroke="#263238" stroke-linecap="round" stroke-linejoin="round"/>
<path d="M72.4928 145.242C72.4928 145.242 61.1348 186.858 60.7986 194.211C60.4624 201.564 83.3538 216.065 84.187 216.942C85.0202 217.819 82.886 191.653 82.886 191.653L90.648 153.647L72.4928 145.242Z" fill="#E1E1E6"/>
<g style="mix-blend-mode:multiply" opacity="0.5">
<path d="M77.6967 148.648L77.4482 147.522L72.4928 145.242C72.4928 145.242 61.1348 186.858 60.7986 194.211C60.4624 201.564 83.3538 216.065 84.187 216.942C84.5232 217.292 84.3916 213.375 84.1139 208.536C77.302 202.762 67.5227 194.635 66.3826 191.214" fill="#BBBBBF"/>
</g>
<path d="M72.4928 145.242C72.4928 145.242 61.1348 186.858 60.7986 194.211C60.4624 201.564 83.3538 216.065 84.187 216.942C85.0202 217.819 82.886 191.653 82.886 191.653L90.648 153.647L72.4928 145.242Z" stroke="#263238" stroke-linecap="round" stroke-linejoin="round"/>
<path d="M125.833 103.435C125.833 103.435 121.447 106.592 112.896 106.943C104.345 107.294 103.935 101.096 93.3082 101.096C80.4299 101.096 64.2773 141.836 64.2773 141.836C64.2773 141.836 72.3171 149.715 80.1961 153.033C84.5546 154.942 89.137 156.293 93.8344 157.053L95.0623 183.818H181.804L182.842 157.053L209.958 139.468C209.958 139.468 196.656 115.685 190.195 106.768C183.733 97.8511 172.873 101.169 169.554 103.435C166.236 105.701 156.398 106.242 152.773 105.715C148.044 104.669 143.37 103.386 138.769 101.871C138.769 101.871 133.185 97.2225 125.833 103.435Z" fill="#EBA417" stroke="#263238" stroke-linecap="round" stroke-linejoin="round"/>
<path fill-rule="evenodd" clip-rule="evenodd" d="M94.3697 157.1L95.1594 112.748L84.8359 154.448L94.3697 157.1Z" fill="#BC8312"/>
<path fill-rule="evenodd" clip-rule="evenodd" d="M171.214 183.93V131.815C171.214 118.592 160.035 114.495 145.125 109.029C139.937 107.127 134.297 105.06 128.519 102.385L127.945 102.271C134.439 98.0391 139.176 101.983 139.176 101.983C143.777 103.497 148.451 104.781 153.18 105.827C156.805 106.353 166.643 105.813 169.961 103.547C173.279 101.281 184.14 97.9629 190.601 106.88C197.062 115.797 210.365 139.58 210.365 139.58L183.249 157.165L182.211 183.93H171.214Z" fill="#BC8312"/>
<path d="M94.7122 112.878L94.3613 157.302" stroke="#263238" stroke-width="0.5" stroke-linecap="round" stroke-linejoin="round"/>
<path d="M97.8555 116.913C97.8555 116.913 99.0834 138.591 103.703 150.665" stroke="#263238" stroke-width="0.5" stroke-linecap="round" stroke-linejoin="round"/>
<path d="M104.506 152.404C105.504 155.351 106.73 158.215 108.175 160.97" stroke="#263238" stroke-width="0.5" stroke-linecap="round" stroke-linejoin="round"/>
<path d="M100.646 114.457C102.306 122.34 104.649 130.063 107.648 137.538" stroke="#263238" stroke-width="0.5" stroke-linecap="round" stroke-linejoin="round"/>
<path d="M176.045 118.301C176.045 118.301 171.85 135.448 168.166 143.151" stroke="#263238" stroke-width="0.5" stroke-linecap="round" stroke-linejoin="round"/>
<path d="M182.841 157.126L182.666 122.497" stroke="#263238" stroke-width="0.5" stroke-linecap="round" stroke-linejoin="round"/>
<path d="M180.926 123.198C180.926 123.198 177.769 145.125 170.08 156.6" stroke="#263238" stroke-width="0.5" stroke-linecap="round" stroke-linejoin="round"/>
<path d="M177.082 152.229C177.082 152.229 173.574 158.88 171.133 162.374" stroke="#263238" stroke-width="0.5" stroke-linecap="round" stroke-linejoin="round"/>
<path d="M120.938 106.066C120.938 106.066 123.393 121.108 126.887 128.797C130.381 136.486 136.505 138.065 141.753 135.799C147.001 133.533 150.845 122.321 150.524 108.025" stroke="#263238" stroke-width="0.5" stroke-linecap="round" stroke-linejoin="round"/>
<path d="M108.525 74.58C108.525 74.58 105.193 68.8206 102.576 71.788C99.9594 74.7554 104.681 81.5819 107.297 83.8476C109.914 86.1134 111.844 84.7247 111.683 82.2835C111.522 79.8424 108.525 74.58 108.525 74.58Z" fill="#E1E1E6" stroke="#263238" stroke-linecap="round" stroke-linejoin="round"/>
<path d="M108.525 74.58C108.525 74.58 105.193 68.8206 102.576 71.788C99.9594 74.7554 104.681 81.5819 107.297 83.8476C109.914 86.1134 111.844 84.7247 111.683 82.2835C111.522 79.8424 108.525 74.58 108.525 74.58Z" stroke="#263238" stroke-linecap="round" stroke-linejoin="round"/>
<path d="M161.428 74.58C161.428 74.58 164.746 68.8206 167.378 71.788C170.009 74.7554 165.273 81.5819 162.656 83.8476C160.04 86.1134 158.095 84.7247 158.271 82.2835C158.446 79.8424 161.428 74.58 161.428 74.58Z" fill="#E1E1E6" stroke="#263238" stroke-linecap="round" stroke-linejoin="round"/>
<path d="M161.428 74.58C161.428 74.58 164.746 68.8206 167.378 71.788C170.009 74.7554 165.273 81.5819 162.656 83.8476C160.04 86.1134 158.095 84.7247 158.271 82.2835C158.446 79.8424 161.428 74.58 161.428 74.58Z" stroke="#263238" stroke-linecap="round" stroke-linejoin="round"/>
<path d="M124.254 102.222C125.905 109.686 128.009 117.043 130.554 124.251C133.712 132.115 139.646 132.115 142.102 127.043C144.558 121.971 146.122 103.07 146.122 103.07C146.122 103.07 129.677 105.365 124.254 102.222Z" fill="#E1E1E6" stroke="#263238" stroke-linecap="round" stroke-linejoin="round"/>
<path d="M108.876 76.5094C108.876 76.5094 113.422 92.5889 122.032 102.047C130.642 111.504 133.727 113.741 138.302 113.054C142.877 112.367 147.745 106.417 154.557 94.0507C161.369 81.6841 161.866 72.1972 162.436 71.3201C163.006 70.4431 160.974 52.9603 151.239 45.4321C141.503 37.904 130.598 34.6004 121.155 42.8156C111.712 51.0307 105.719 64.4352 108.876 76.5094Z" fill="#E1E1E6"/>
<path d="M108.876 76.5094C108.876 76.5094 113.422 92.589 122.032 102.047C130.642 111.504 133.727 113.741 138.302 113.054C142.877 112.367 147.745 106.417 154.557 94.0507C161.369 81.6841 161.866 72.1972 162.436 71.3201C163.006 70.4431 160.974 52.9603 151.239 45.4321C141.503 37.904 130.598 34.6004 121.155 42.8156C111.712 51.0307 105.719 64.4352 108.876 76.5094Z" stroke="#263238" stroke-linecap="round" stroke-linejoin="round"/>
<path d="M138.259 84.8999C137.717 88.3141 137.424 91.7633 137.382 95.22C137.557 98.7137 138.61 99.7661 137.031 100.117C135.452 100.468 133.713 98.012 133.713 98.012" stroke="#263238" stroke-linecap="round" stroke-linejoin="round"/>
<path d="M120.76 87.7065C121.773 88.4384 122.984 88.8468 124.234 88.8781C125.483 88.9094 126.713 88.5622 127.762 87.8819" stroke="#263238" stroke-linecap="round" stroke-linejoin="round"/>
<path d="M142.98 87.7065C143.992 88.4372 145.2 88.8449 146.447 88.8762C147.694 88.9075 148.921 88.5609 149.968 87.8819" stroke="#263238" stroke-linecap="round" stroke-linejoin="round"/>
<path d="M131.928 81.8155C131.928 81.8155 128.595 73.5857 117.588 77.4302" stroke="#263238" stroke-linecap="round" stroke-linejoin="round"/>
<path d="M141.094 80.8066C141.094 80.8066 143.886 72.7522 153.855 77.4738" stroke="#263238" stroke-linecap="round" stroke-linejoin="round"/>
<path d="M134.048 88.3055C134.048 92.8077 128.888 96.4476 122.515 96.4476C116.141 96.4476 110.967 92.8077 110.967 88.3055C110.967 83.8032 115.791 81.9321 122.164 81.9321C128.537 81.9321 134.048 83.8178 134.048 88.3055Z" stroke="#263238" stroke-linecap="round" stroke-linejoin="round"/>
<path d="M160.638 88.3055C160.638 92.8077 155.463 96.4476 149.09 96.4476C142.717 96.4476 137.557 92.8077 137.557 88.3055C137.557 83.8032 142.366 81.9321 148.739 81.9321C155.113 81.9321 160.638 83.8178 160.638 88.3055Z" stroke="#263238" stroke-linecap="round" stroke-linejoin="round"/>
<path d="M150.215 30.3464C151.955 29.981 155.682 28.5484 158.196 22.716C158.235 22.6277 158.256 22.5327 158.258 22.4363C158.26 22.3399 158.242 22.2442 158.207 22.1545C158.172 22.0648 158.119 21.983 158.052 21.9138C157.985 21.8446 157.905 21.7893 157.816 21.7512C157.638 21.6769 157.437 21.6751 157.257 21.746C157.077 21.8169 156.932 21.9551 156.852 22.1313C154.542 27.4813 151.238 28.6654 149.864 28.9285C152.323 25.9527 153.681 22.2201 153.709 18.3599C153.709 8.21517 144.31 0 132.718 0C121.126 0 111.727 8.21517 111.727 18.3599C111.735 22.0644 112.968 25.6622 115.235 28.5923C113.028 28.4754 109.3 29.4109 104.579 34.9218C104.444 35.0609 104.368 35.247 104.368 35.4407C104.368 35.6344 104.444 35.8205 104.579 35.9596C104.714 36.0723 104.885 36.1343 105.061 36.1351C105.167 36.1352 105.272 36.1116 105.368 36.0661C105.464 36.0206 105.549 35.9543 105.616 35.8719C111.654 28.8408 115.644 30.0248 116.448 30.3464C115.083 31.0972 113.804 31.9941 112.633 33.0215C105.894 39.0878 101.787 50.5627 102.313 60.1227C102.904 66.4633 105.203 72.5252 108.964 77.664C113.858 74.1612 117.917 69.6185 120.848 64.3619C123.033 60.5006 124.985 56.5127 126.695 52.4192C126.695 56.7022 127.251 61.8769 129.502 65.5752C131.126 68.4963 133.505 70.9275 136.39 72.6145C139.275 74.3014 142.561 75.1821 145.903 75.1644C147.057 75.181 148.209 75.0682 149.338 74.8282C149.437 74.8034 149.53 74.758 149.611 74.6951C149.691 74.6321 149.758 74.553 149.806 74.4627C155.448 75.6614 161.061 75.5591 161.924 74.3604C163.313 72.4455 165.286 66.4669 165.944 59.158C167.142 46.7621 159.337 36.0035 150.215 30.3464ZM130.861 64.6835C128.025 60.0497 128.113 52.4923 128.449 48.1508L128.639 47.6538C128.774 52.119 129.912 56.4965 131.97 60.4618C134.027 64.4271 136.951 67.8784 140.524 70.5598C142.497 71.9241 144.686 72.947 146.999 73.5857C143.418 73.8342 136.051 73.1471 130.861 64.6835Z" fill="#263238"/>
<path d="M131.109 41.6753C131.109 41.6753 129.911 50.5336 141.166 59.2166C152.422 67.8995 163.093 64.479 163.093 64.479" stroke="#E1E1E6" stroke-width="0.5" stroke-linecap="round" stroke-linejoin="round"/>
<path d="M132.762 38.7515C132.762 38.7515 144.617 56.015 160.989 51.5127" stroke="#E1E1E6" stroke-width="0.5" stroke-linecap="round" stroke-linejoin="round"/>
<path d="M126.899 33.0068C125.029 32.0576 122.935 31.6401 120.844 31.7999C118.754 31.9597 116.747 32.6907 115.044 33.9131C108.743 38.1084 105.586 48.0192 105.586 48.0192" stroke="#E1E1E6" stroke-width="0.5" stroke-linecap="round" stroke-linejoin="round"/>
<path d="M127.207 37.8164C127.207 37.8164 122.105 36.457 118.948 39.6144C117.409 41.0089 116.093 42.6308 115.045 44.4236" stroke="#E1E1E6" stroke-width="0.5" stroke-linecap="round" stroke-linejoin="round"/>
<path d="M20.1118 223.716L19.3652 382.406C19.3652 382.906 19.5964 383.385 20.0079 383.739C20.4193 384.092 20.9774 384.291 21.5593 384.291C22.1268 384.291 22.6719 384.101 23.0788 383.761C23.4857 383.421 23.7222 382.959 23.7381 382.471L29.01 223.939L20.1118 223.716Z" fill="#E1E1E6" stroke="#263238" stroke-linecap="round" stroke-linejoin="round"/>
<path d="M8.61786 260.569L7.96685 424.525C7.965 424.773 8.01534 425.018 8.11492 425.248C8.21451 425.477 8.36137 425.685 8.54695 425.861C8.73253 426.036 8.95313 426.175 9.19596 426.269C9.43878 426.363 9.69899 426.41 9.96144 426.409C10.4764 426.409 10.9715 426.221 11.3432 425.885C11.715 425.548 11.9346 425.089 11.956 424.603L16.7347 260.779L8.61786 260.569Z" fill="#E1E1E6" stroke="#263238" stroke-linecap="round" stroke-linejoin="round"/>
<path d="M258.928 223.716L259.608 382.406C259.61 382.653 259.56 382.898 259.461 383.126C259.362 383.355 259.216 383.563 259.032 383.738C258.847 383.913 258.628 384.052 258.386 384.147C258.145 384.242 257.886 384.291 257.624 384.291C257.106 384.291 256.608 384.102 256.235 383.762C255.862 383.423 255.644 382.96 255.626 382.471L250.84 223.939L258.928 223.716Z" fill="#E1E1E6" stroke="#263238" stroke-linecap="round" stroke-linejoin="round"/>
<path d="M270.325 260.569L271.004 424.525C271.006 424.773 270.956 425.018 270.856 425.248C270.757 425.477 270.61 425.685 270.424 425.861C270.239 426.036 270.018 426.175 269.775 426.269C269.532 426.363 269.272 426.41 269.01 426.409C268.496 426.409 268.002 426.221 267.633 425.884C267.263 425.547 267.047 425.088 267.029 424.603L262.236 260.779L270.325 260.569Z" fill="#E1E1E6" stroke="#263238" stroke-linecap="round" stroke-linejoin="round"/>
<path d="M89.8977 267.589L89.5169 412.574C89.4754 412.935 89.5766 413.299 89.7994 413.588C90.0222 413.877 90.3492 414.07 90.7117 414.125C91.0656 414.076 91.3875 413.895 91.6119 413.619C91.8363 413.343 91.9463 412.992 91.9196 412.639L94.7686 267.759L89.8977 267.589Z" fill="#E1E1E6" stroke="#263238" stroke-linecap="round" stroke-linejoin="round"/>
<path d="M189.917 262.324L190.334 389.995C190.37 390.304 190.265 390.613 190.04 390.858C189.816 391.103 189.489 391.265 189.129 391.31C188.769 391.265 188.444 391.102 188.222 390.857C188.001 390.612 187.899 390.303 187.939 389.995L185.08 262.429L189.917 262.324Z" fill="#E1E1E6" stroke="#263238" stroke-linecap="round" stroke-linejoin="round"/>
<path d="M88.2078 262.324L88.625 389.995C88.6607 390.304 88.5555 390.613 88.3312 390.858C88.1068 391.103 87.7805 391.265 87.4197 391.31C87.0601 391.265 86.7352 391.102 86.5134 390.857C86.2915 390.612 86.1899 390.303 86.2298 389.995L83.3711 262.429L88.2078 262.324Z" fill="#E1E1E6" stroke="#263238" stroke-linecap="round" stroke-linejoin="round"/>
<path d="M187.224 267.589L187.699 412.574C187.748 412.935 187.63 413.299 187.37 413.588C187.11 413.877 186.728 414.07 186.305 414.125C185.894 414.073 185.521 413.891 185.259 413.616C184.998 413.341 184.869 412.992 184.896 412.639L181.572 267.759L187.224 267.589Z" fill="#E1E1E6" stroke="#263238" stroke-linecap="round" stroke-linejoin="round"/>
<path d="M137.652 278.553C172.656 278.553 201.033 272.108 201.033 264.159C201.033 256.21 172.656 249.766 137.652 249.766C102.648 249.766 74.2715 256.21 74.2715 264.159C74.2715 272.108 102.648 278.553 137.652 278.553Z" fill="#E1E1E6" stroke="#263238" stroke-linecap="round" stroke-linejoin="round"/>
<path d="M106.786 386.342C106.786 386.342 103.468 391.069 105.846 393.418C108.225 395.767 110.589 394.833 110.347 397.197C110.105 399.56 106.316 407.571 102.998 416.063C99.6792 424.554 106.558 433.046 112.968 430.697C119.377 428.347 118.665 404.74 119.605 400.494C120.545 396.249 121.271 395.541 121.029 391.536C120.787 387.53 120.559 383.285 117.468 382.803C114.378 382.322 108.211 384.7 106.786 386.342Z" fill="#E1E1E6" stroke="#263238" stroke-linecap="round" stroke-linejoin="round"/>
<path d="M116.969 424.187C112.696 422.573 106.144 422.899 102.455 423.267C103.694 428.603 108.437 432.353 112.966 430.697C114.861 430.004 116.1 427.485 116.969 424.187Z" fill="#61DCFB" stroke="#263238" stroke-linecap="round" stroke-linejoin="round"/>
<path d="M99.4375 375.967C99.4375 375.967 106.317 387.53 108.211 390.587C110.105 393.644 116.529 392.71 117.241 388.464C117.953 384.219 114.62 372.429 114.62 372.429L100.378 375.967H99.4375Z" fill="#E1E1E6" stroke="#263238" stroke-linecap="round" stroke-linejoin="round"/>
<path d="M83.0594 357.569C83.0594 357.569 81.1508 360.64 82.1051 362.763C83.0594 364.886 85.6658 371.014 87.3322 374.085C88.9986 377.156 96.59 379.039 105.364 377.623C114.137 376.208 119.136 372.188 119.379 368.65C119.621 365.112 117.954 360.399 116.758 354.738C115.561 349.077 112.485 349.317 108.212 349.317C103.939 349.317 86.6201 354.271 83.0594 357.569Z" fill="#61DCFB" stroke="#263238" stroke-linecap="round" stroke-linejoin="round"/>
<path d="M108.695 288.219C108.823 282.417 112.199 279.558 112.455 275.581C112.857 270.323 112.419 265.035 111.159 259.913L104.664 251.096C85.9777 251.337 72.5895 251.648 72.3758 251.719C71.6637 251.945 71.1794 255.965 70.7094 259.262C70.7094 259.262 62.7762 260.267 64.2004 282.204C64.3998 285.261 72.4043 320.63 72.9883 324.663C76.549 349.303 84.4822 361.645 84.4822 361.645C84.4822 361.645 85.1944 364.716 94.4522 364.008C103.71 363.301 112.968 357.172 112.968 357.172C112.968 357.172 108.211 309.208 108.695 288.219Z" fill="#263238" stroke="#263238" stroke-linecap="round" stroke-linejoin="round"/>
<path d="M86.848 259.914C93.1003 260.233 99.3038 261.182 105.364 262.744C113.439 265.108 127.682 269.821 131.001 269.821C134.319 269.821 133.379 257.55 133.379 255.201C133.379 252.851 90.6508 251.422 85.4237 251.422C80.1966 251.422 86.848 259.914 86.848 259.914Z" fill="#E1E1E6" stroke="#263238" stroke-linecap="round" stroke-linejoin="round"/>
<path d="M133.377 255.201C133.377 255.201 129.574 257.083 128.15 264.159C126.726 271.236 124.831 275.015 127.68 276.897C130.529 278.779 142.877 280.195 144.771 278.312C146.666 276.43 151.893 266.99 152.847 260.862C153.801 254.734 133.377 255.201 133.377 255.201Z" fill="#61DCFB" stroke="#263238" stroke-linecap="round" stroke-linejoin="round"/>
<path d="M149.515 257.55C147.307 260.068 145.545 262.939 144.302 266.042C143.296 269.29 142.501 272.599 141.924 275.949C146.468 277.187 150.91 278.767 155.212 280.676C162.818 283.974 175.637 286.337 187.971 289.168C200.305 291.998 203.638 294.829 207.911 294.829C212.184 294.829 217.411 291.517 224.062 283.507C230.714 275.496 225.002 258.498 218.365 253.304C211.728 248.11 176.107 243.878 171.364 245.294C166.621 246.709 149.515 257.55 149.515 257.55Z" fill="#263238" stroke="#263238" stroke-linecap="round" stroke-linejoin="round"/>
<path d="M107.968 277.874C107.968 277.874 103.069 329.971 93.0703 338.081" stroke="#49606B" stroke-width="0.5" stroke-linecap="round" stroke-linejoin="round"/>
<path d="M104.508 327.324C104.508 327.324 100.62 344.307 90.4219 351.058" stroke="#49606B" stroke-width="0.5" stroke-linecap="round" stroke-linejoin="round"/>
<path d="M167.56 268.406C167.56 268.406 152.363 269.354 162.333 275.949C172.303 282.545 190.349 286.805 190.349 286.805" stroke="#49606B" stroke-width="0.5" stroke-linecap="round" stroke-linejoin="round"/>
<path d="M277.886 254.068L272.759 249.482L260.909 224.007C260.347 222.848 259.464 221.872 258.365 221.193C257.265 220.513 255.993 220.159 254.699 220.171H24.5349C23.2378 220.157 21.9634 220.509 20.861 221.189C19.7586 221.868 18.874 222.846 18.3108 224.007L3.54098 255.738L1.10547 254.846V262.106L1.21941 262.022C1.36449 262.99 1.85925 263.873 2.6114 264.506C3.36355 265.139 4.32171 265.478 5.3071 265.461H273.912C274.95 265.484 275.957 265.106 276.719 264.407C277.482 263.707 277.941 262.74 278 261.71L277.886 254.068Z" fill="#5E5E61" stroke="#263238" stroke-linecap="round" stroke-linejoin="round"/>
<path d="M273.913 258.823H5.30786C4.64268 258.849 3.98169 258.707 3.38685 258.41C2.79201 258.114 2.28283 257.671 1.90702 257.125C1.53121 256.579 1.30109 255.947 1.23826 255.289C1.17542 254.63 1.28191 253.967 1.54775 253.36L18.3116 217.369C18.8719 216.206 19.7559 215.227 20.859 214.547C21.962 213.867 23.2379 213.516 24.5357 213.534H254.7C255.995 213.518 257.268 213.871 258.368 214.551C259.468 215.23 260.35 216.208 260.909 217.369L277.673 253.36C277.939 253.967 278.046 254.63 277.983 255.289C277.92 255.947 277.69 256.579 277.314 257.125C276.938 257.671 276.429 258.114 275.834 258.41C275.239 258.707 274.578 258.849 273.913 258.823Z" fill="#E1E1E6" stroke="#263238" stroke-linecap="round" stroke-linejoin="round"/>
<g style="mix-blend-mode:multiply" opacity="0.5">
<path d="M18.9085 234.65C18.9085 234.65 12.8268 238.797 16.6297 240.311C20.4325 241.826 64.1437 240.694 69.4705 239.179C74.7974 237.665 80.8648 223.696 80.8648 221.431C80.8648 219.167 73.2022 217.539 70.3821 217.412C67.562 217.285 30.3028 219.535 30.3028 219.535L18.9085 234.65Z" fill="#A8A8A8"/>
</g>
<g style="mix-blend-mode:multiply" opacity="0.5">
<path d="M236.339 241.825C244.945 241.825 251.921 238.949 251.921 235.4C251.921 231.851 244.945 228.975 236.339 228.975C227.734 228.975 220.758 231.851 220.758 235.4C220.758 238.949 227.734 241.825 236.339 241.825Z" fill="#A8A8A8"/>
</g>
<g style="mix-blend-mode:multiply" opacity="0.5">
<path d="M137.138 249.766C167.997 249.766 193.013 245.115 193.013 239.377C193.013 233.64 167.997 228.989 137.138 228.989C106.28 228.989 81.2637 233.64 81.2637 239.377C81.2637 245.115 106.28 249.766 137.138 249.766Z" fill="#A8A8A8"/>
</g>
<path d="M224.946 210.123C224.946 210.123 223.92 206.061 220.516 207.42C217.112 208.779 217.454 217.752 218.124 222.833C218.793 227.914 223.408 225.536 223.408 225.536V222.493C223.408 222.493 221.713 223.838 220.858 221.984C220.004 220.129 220.175 210.803 221.029 210.973C221.884 211.142 223.579 214.015 223.579 214.015C223.579 214.015 224.091 213.69 224.946 210.123Z" fill="#61DCFB" stroke="#263238" stroke-linecap="round" stroke-linejoin="round"/>
<path d="M222.496 210.802V233.051C222.496 235.669 228.549 237.792 236.027 237.792C243.504 237.792 249.543 235.669 249.543 233.051V210.802H222.496Z" fill="#61DCFB" stroke="#263238" stroke-linecap="round" stroke-linejoin="round"/>
<path d="M249.543 210.803C249.543 213.067 243.49 214.893 236.027 214.893C228.564 214.893 222.496 213.067 222.496 210.803C222.496 208.538 228.549 206.712 236.027 206.712C243.504 206.712 249.543 208.552 249.543 210.803Z" fill="#E1E1E6" stroke="#263238" stroke-linecap="round" stroke-linejoin="round"/>
<path d="M247.777 210.802C247.777 212.77 242.507 214.355 236.026 214.355C229.546 214.355 224.262 212.77 224.262 210.802C224.262 208.835 229.532 207.25 236.026 207.25C242.521 207.25 247.777 208.835 247.777 210.802Z" fill="#E1E1E6" stroke="#263238" stroke-linecap="round" stroke-linejoin="round"/>
<path d="M226.953 213.067C232.873 214.784 239.164 214.784 245.084 213.067C239.164 211.35 232.873 211.35 226.953 213.067Z" fill="#263238" stroke="#263238" stroke-linecap="round" stroke-linejoin="round"/>
<path d="M17.2285 220.964L17.3994 228.578L69.0297 229.088V220.285L17.2285 220.964Z" fill="#E1E1E6" stroke="#263238" stroke-linecap="round" stroke-linejoin="round"/>
<path d="M69.0293 229.088L76.5353 213.01V208.269L68.6875 221.813L69.0293 229.088Z" fill="#E1E1E6" stroke="#263238" stroke-linecap="round" stroke-linejoin="round"/>
<path d="M17.2285 227.899L17.3994 235.528L69.0297 236.037V227.234L17.2285 227.899Z" fill="#E1E1E6" stroke="#263238" stroke-linecap="round" stroke-linejoin="round"/>
<path d="M69.0293 236.037L76.5353 219.945V215.204L68.6875 228.748L69.0293 236.037Z" fill="#E1E1E6" stroke="#263238" stroke-linecap="round" stroke-linejoin="round"/>
<path d="M37.1687 201.66C37.1687 201.66 38.3651 199.296 36.6559 198.277C34.9468 197.258 33.081 199.692 32.0555 200.471C31.03 201.249 9.5661 215.374 8.88245 217.582C8.19879 219.79 8.88246 224.658 13.4829 225.196C18.0833 225.734 22.171 222.663 24.222 222.153C26.2729 221.644 27.0705 221.474 27.0705 221.474L41.2136 202.509L37.1687 201.66Z" fill="#61DCFB" stroke="#263238" stroke-linecap="round" stroke-linejoin="round"/>
<path d="M13.4828 225.21C18.0833 225.72 22.1709 222.677 24.2219 222.168C26.2729 221.658 27.0705 221.488 27.0705 221.488L27.5832 220.795L14.2947 218.106C13.5722 217.429 12.6433 217.012 11.6552 216.92C10.6671 216.828 9.67626 217.066 8.83966 217.596C8.19873 219.776 8.8824 224.687 13.4828 225.21Z" fill="#E1E1E6" stroke="#263238" stroke-linecap="round" stroke-linejoin="round"/>
<path d="M14.3379 218.134H54.2178C66.666 218.134 70.4119 217.454 70.4119 217.454L78.0745 201.702C78.0745 201.702 53.8617 203.231 46.3842 202.721C43.2944 202.633 40.217 202.292 37.1834 201.702L14.3379 218.134Z" fill="#61DCFB" stroke="#263238" stroke-linecap="round" stroke-linejoin="round"/>
<path d="M14.3379 218.134L15.0215 221.177C15.0215 221.177 47.3955 221.347 55.9127 221.347C64.4299 221.347 70.9104 221.686 70.9104 221.686L70.3976 217.44L14.3379 218.134Z" fill="#E1E1E6" stroke="#263238" stroke-linecap="round" stroke-linejoin="round"/>
<path d="M70.9092 221.644L78.0591 205.382V201.66L70.3965 217.412L70.9092 221.644Z" fill="#E1E1E6" stroke="#263238" stroke-linecap="round" stroke-linejoin="round"/>
<path d="M185.933 240.665H88.2987C88.0824 240.667 87.8678 240.626 87.6675 240.545C87.4671 240.464 87.2848 240.345 87.1312 240.193C86.9776 240.042 86.8557 239.862 86.7725 239.663C86.6893 239.465 86.6465 239.252 86.6465 239.037C86.6465 238.822 86.6893 238.61 86.7725 238.411C86.8557 238.213 86.9776 238.033 87.1312 237.881C87.2848 237.73 87.4671 237.61 87.6675 237.53C87.8678 237.449 88.0824 237.408 88.2987 237.41H185.933C186.149 237.408 186.363 237.449 186.562 237.53C186.762 237.611 186.943 237.731 187.096 237.882C187.248 238.034 187.369 238.214 187.45 238.412C187.532 238.611 187.573 238.823 187.571 239.037C187.573 239.252 187.532 239.464 187.45 239.662C187.369 239.861 187.248 240.041 187.096 240.192C186.943 240.344 186.762 240.464 186.562 240.545C186.363 240.626 186.149 240.667 185.933 240.665Z" fill="#161E22" stroke="#263238" stroke-linecap="round" stroke-linejoin="round"/>
<path d="M186.874 237.382H87.5728C87.2094 237.382 86.8595 237.245 86.5948 236.998C86.33 236.75 86.1704 236.412 86.1486 236.051L80.7505 171.585C80.7262 171.385 80.745 171.183 80.8056 170.991C80.8663 170.799 80.9673 170.622 81.1021 170.472C81.2368 170.322 81.4022 170.202 81.5872 170.121C81.7722 170.039 81.9725 169.998 82.1748 170H192.286C192.488 169.998 192.689 170.039 192.874 170.121C193.059 170.202 193.224 170.322 193.359 170.472C193.494 170.622 193.595 170.799 193.655 170.991C193.716 171.183 193.735 171.385 193.71 171.585L188.312 236.051C188.29 236.414 188.129 236.755 187.861 237.002C187.593 237.25 187.24 237.386 186.874 237.382Z" fill="#161E22" stroke="#263238" stroke-linecap="round" stroke-linejoin="round"/>
<path d="M243.518 154.446C245.041 153.265 246.111 151.602 246.551 149.733C246.871 148.331 246.837 146.872 246.452 145.487" stroke="#6C7D85" stroke-linecap="round" stroke-linejoin="round"/>
<path d="M232.152 204.915C232.152 204.915 241.624 199.254 238.533 192.786C235.442 186.318 224.988 182.029 224.988 171.953C224.988 163.263 234.289 160.05 240.356 156.568" stroke="#6C7D85" stroke-linecap="round" stroke-linejoin="round"/>
<path d="M240.897 204.731C240.897 204.731 246.181 201.235 246.181 195.687C246.181 191.965 242.179 189.531 236.895 183.544" stroke="#6C7D85" stroke-linecap="round" stroke-linejoin="round"/>
<path d="M233.976 179.921C233.976 179.921 230.514 177.218 233.064 172.137" stroke="#6C7D85" stroke-linecap="round" stroke-linejoin="round"/>
<path fill-rule="evenodd" clip-rule="evenodd" d="M147.191 200.041C151.679 201.398 154.606 203.585 154.606 205.894C154.606 208.196 151.693 210.384 147.234 211.74C148.277 216.244 147.823 219.831 145.802 220.982C145.328 221.252 144.781 221.38 144.177 221.38C142.199 221.38 139.61 220.002 136.992 217.601C134.374 220.016 131.785 221.408 129.807 221.408C129.203 221.408 128.656 221.28 128.188 221.01C126.16 219.86 125.7 216.265 126.736 211.747C122.248 210.391 119.32 208.203 119.32 205.894C119.32 203.593 122.233 201.412 126.707 200.048C125.664 195.544 126.117 191.957 128.138 190.806C128.613 190.536 129.159 190.409 129.764 190.409V190.401C131.741 190.401 134.331 191.78 136.949 194.181C139.567 191.765 142.156 190.373 144.134 190.373V190.38C144.728 190.381 145.272 190.509 145.738 190.778C147.766 191.929 148.226 195.523 147.191 200.041ZM144.127 191.957C142.631 191.961 140.433 193.14 138.092 195.289C139.106 196.333 140.113 197.526 141.084 198.84C142.703 199.011 144.242 199.274 145.651 199.615C145.81 198.897 145.939 198.194 146.018 197.526C146.349 194.813 145.925 192.703 144.947 192.149C144.724 192.028 144.457 191.964 144.127 191.964V191.957ZM135.805 195.296C133.46 193.158 131.252 191.986 129.764 191.986V191.993C129.433 191.993 129.152 192.049 128.936 192.177C127.965 192.739 127.548 194.848 127.886 197.562C127.973 198.222 128.095 198.911 128.26 199.622C129.67 199.274 131.209 199.011 132.835 198.84C133.791 197.526 134.798 196.34 135.805 195.296ZM144.27 203.962C144.644 203.017 144.975 202.072 145.241 201.156C144.299 200.929 143.314 200.744 142.293 200.595C142.645 201.135 142.997 201.689 143.328 202.257C143.666 202.825 143.976 203.394 144.27 203.962ZM140.214 211.435C140.811 210.59 141.386 209.68 141.947 208.721C142.487 207.791 142.983 206.839 143.436 205.887C142.983 204.935 142.487 203.99 141.94 203.06C141.379 202.108 140.797 201.206 140.2 200.361C139.135 200.275 138.049 200.226 136.963 200.226C135.87 200.226 134.784 200.275 133.712 200.368C133.115 201.213 132.54 202.122 131.979 203.081C131.439 204.012 130.936 204.964 130.49 205.915C130.943 206.867 131.439 207.812 131.986 208.743C132.547 209.694 133.13 210.597 133.727 211.442C134.791 211.527 135.877 211.577 136.963 211.577C138.056 211.577 139.142 211.527 140.214 211.435ZM145.263 210.625C144.99 209.702 144.659 208.75 144.27 207.798C143.976 208.366 143.666 208.942 143.335 209.51C143.005 210.085 142.652 210.646 142.3 211.193C143.328 211.044 144.321 210.852 145.263 210.625ZM134.978 213.104C135.64 213.935 136.309 214.695 136.977 215.377C137.639 214.695 138.308 213.935 138.955 213.104C138.301 213.14 137.632 213.154 136.956 213.154C136.287 213.154 135.625 213.133 134.978 213.104ZM128.678 210.632C129.62 210.859 130.605 211.044 131.626 211.193C131.274 210.653 130.929 210.099 130.591 209.531C130.253 208.963 129.943 208.395 129.648 207.826C129.274 208.771 128.944 209.716 128.678 210.632ZM138.941 198.684C138.279 197.853 137.61 197.093 136.941 196.411C136.28 197.093 135.611 197.853 134.964 198.684C135.618 198.649 136.287 198.634 136.963 198.634C137.632 198.634 138.294 198.656 138.941 198.684ZM130.583 202.278C130.914 201.703 131.267 201.142 131.619 200.595C130.591 200.744 129.598 200.936 128.656 201.156C128.929 202.08 129.26 203.031 129.648 203.983C129.943 203.415 130.253 202.847 130.583 202.278ZM120.917 205.894C120.917 207.009 122.564 208.416 125.11 209.488C125.736 209.751 126.412 209.993 127.124 210.213C127.527 208.828 128.059 207.386 128.721 205.908C128.052 204.424 127.512 202.975 127.102 201.582C126.405 201.803 125.729 202.037 125.11 202.3C122.564 203.365 120.917 204.779 120.917 205.894ZM127.908 214.262C127.577 216.976 128.001 219.085 128.98 219.639C129.195 219.76 129.469 219.824 129.792 219.831C131.288 219.831 133.489 218.652 135.834 216.5C134.82 215.455 133.813 214.262 132.842 212.948C131.224 212.777 129.684 212.515 128.275 212.174C128.117 212.891 127.987 213.594 127.908 214.262ZM144.99 219.611C145.961 219.05 146.378 216.94 146.04 214.226C145.961 213.566 145.831 212.877 145.666 212.159C144.256 212.507 142.717 212.77 141.091 212.941C140.135 214.255 139.128 215.441 138.121 216.485C140.466 218.624 142.674 219.796 144.163 219.796C144.493 219.796 144.774 219.739 144.99 219.611ZM146.817 210.206C147.514 209.986 148.19 209.751 148.809 209.488C151.355 208.423 153.002 207.009 153.009 205.894C153.009 204.779 151.362 203.372 148.816 202.3C148.183 202.037 147.507 201.795 146.795 201.575C146.392 202.96 145.86 204.402 145.198 205.88C145.867 207.365 146.407 208.814 146.817 210.206ZM140.243 205.894C140.243 207.687 138.772 209.14 136.957 209.14C135.141 209.14 133.67 207.687 133.67 205.894C133.67 204.101 135.141 202.648 136.957 202.648C138.772 202.648 140.243 204.101 140.243 205.894Z" fill="#61DCFB"/>
</svg>
