<svg width="42" height="43" viewBox="0 0 42 43" fill="none" xmlns="http://www.w3.org/2000/svg">
<path d="M0.445313 21.0488C0.570313 17.6582 1.47656 14.4863 3.16406 11.5332C4.85156 8.58008 7.23438 6.0957 10.3125 4.08008C10.3906 4.08008 10.4297 4.08008 10.4297 4.08008C10.4297 4.0957 10.4219 4.11914 10.4063 4.15039C10.2813 4.27539 10.0625 4.54101 9.75 4.94726C9.4375 5.33789 9.03125 5.93164 8.53125 6.72851C8.03125 7.52539 7.5625 8.39258 7.125 9.33008C6.6875 10.252 6.33594 11.3066 6.07031 12.4941C5.82031 13.6816 5.71094 14.8613 5.74219 16.0332C5.78906 17.1895 6.09375 18.416 6.65625 19.7129C7.23438 21.0098 8.08594 22.2129 9.21094 23.3223C9.99219 24.1035 10.7891 24.6504 11.6016 24.9629C12.4141 25.2598 13.1172 25.3457 13.7109 25.2207C14.3203 25.0957 14.8672 24.916 15.3516 24.6816C15.8359 24.4316 16.2031 24.1738 16.4531 23.9082L16.8281 23.5332C17.4375 22.7363 17.8516 21.8301 18.0703 20.8145C18.2891 19.7832 18.3359 18.8223 18.2109 17.9316C18.1016 17.041 17.9375 16.2051 17.7188 15.4238C17.5156 14.6426 17.3125 14.0176 17.1094 13.5488L16.7813 12.8691C16.625 12.4785 16.3828 12.0957 16.0547 11.7207C15.7422 11.3301 15.4063 11.0098 15.0469 10.7598C14.7031 10.4941 14.3672 10.2598 14.0391 10.0566C13.7109 9.85351 13.4375 9.70508 13.2188 9.61133L12.9141 9.4707L15.3516 6.77539C15.9609 7.04101 16.5703 7.44726 17.1797 7.99414C17.7891 8.54101 18.25 9.01758 18.5625 9.42383L19.0078 10.0566C19.0234 9.30664 18.875 8.50195 18.5625 7.64258C18.2656 6.76758 17.9531 6.08008 17.625 5.58008L17.1563 4.85351L20.9297 0.56445L24.6797 4.80664C24.1641 5.52539 23.75 6.33008 23.4375 7.2207C23.1406 8.0957 22.9688 8.79883 22.9219 9.33008L22.8281 10.1035C23.1719 9.52539 23.6484 8.96289 24.2578 8.41601C24.8828 7.85351 25.4141 7.43945 25.8516 7.17383L26.5078 6.77539L28.9219 9.4707C28.2344 9.68945 27.5703 10.0801 26.9297 10.6426C26.2891 11.2051 25.8203 11.7129 25.5234 12.166L25.0781 12.8457C24.5938 13.7207 24.2188 14.7676 23.9531 15.9863C23.6875 17.1895 23.6328 18.5176 23.7891 19.9707C23.9453 21.4082 24.3906 22.627 25.125 23.627C25.6406 24.3301 26.2422 24.8066 26.9297 25.0566C27.6328 25.291 28.2969 25.3301 28.9219 25.1738C29.5625 25.0176 30.1563 24.8145 30.7031 24.5645C31.2656 24.2988 31.7188 24.0332 32.0625 23.7676L32.5547 23.3926C33.4922 22.5645 34.2422 21.666 34.8047 20.6973C35.3828 19.7285 35.7656 18.7832 35.9531 17.8613C36.1406 16.9238 36.2188 15.9707 36.1875 15.002C36.1563 14.0332 36.0156 13.1113 35.7656 12.2363C35.5156 11.3613 35.2266 10.5254 34.8984 9.72851C34.5703 8.91601 34.2109 8.18945 33.8203 7.54883C33.4453 6.89258 33.0938 6.33008 32.7656 5.86133C32.4531 5.37695 32.1875 5.00195 31.9688 4.73633L31.6641 4.33789C31.4453 4.13476 31.3906 4.0332 31.5 4.0332C31.6563 4.08008 31.7344 4.10351 31.7344 4.10351C32.3594 4.55664 32.8438 4.91601 33.1875 5.18164C33.5469 5.44726 34.0313 5.83789 34.6406 6.35351C35.2656 6.86914 35.7656 7.32227 36.1406 7.71289C36.5313 8.10351 36.9922 8.61133 37.5234 9.23633C38.0547 9.86133 38.4844 10.4629 38.8125 11.041C39.1563 11.6191 39.5156 12.3066 39.8906 13.1035C40.2656 13.9004 40.5625 14.7051 40.7813 15.5176C41 16.3301 41.1797 17.2441 41.3203 18.2598C41.4766 19.2754 41.5625 20.3379 41.5781 21.4473C41.625 25.4941 40.7813 29.127 39.0469 32.3457C37.3125 35.5645 34.875 38.0723 31.7344 39.8691C28.5938 41.666 25.0313 42.5645 21.0469 42.5645C18.1563 42.5645 15.4141 41.9863 12.8203 40.8301C10.2266 39.6738 8.00781 38.127 6.16406 36.1895C4.33594 34.252 2.89844 31.9629 1.85156 29.3223C0.820313 26.6816 0.351563 23.9238 0.445313 21.0488Z" fill="white"/>
</svg>
