<svg width="32" height="32" viewBox="0 0 32 32" fill="none" xmlns="http://www.w3.org/2000/svg">
<path d="M7.99996 2.66675H18.6666V5.33341H7.99996V2.66675ZM5.33329 8.00008V5.33341H7.99996V8.00008H5.33329ZM5.33329 18.6667H2.66663V8.00008H5.33329V18.6667ZM7.99996 21.3334H5.33329V18.6667H7.99996V21.3334ZM18.6666 21.3334V24.0001H7.99996V21.3334H18.6666ZM21.3333 18.6667H18.6666V21.3334H21.3333V24.0001H24V26.6667H26.6666V29.3334H29.3333V26.6667H26.6666V24.0001H24V21.3334H21.3333V18.6667ZM21.3333 8.00008H24V18.6667H21.3333V8.00008ZM21.3333 8.00008V5.33341H18.6666V8.00008H21.3333Z" fill="white"/>
</svg>
